M48
; DRILL file {KiCad 9.0.2} date 2025-11-27T20:34:37+1300
; FORMAT={-:-/ absolute / inch / decimal}
; #@! TF.CreationDate,2025-11-27T20:34:37+13:00
; #@! TF.GenerationSoftware,Kicad,Pcbnew,9.0.2
; #@! TF.FileFunction,Plated,1,4,PTH
FMAT,2
INCH
; #@! TA.AperFunction,Plated,PTH,ComponentDrill
T1C0.0079
; #@! TA.AperFunction,Plated,PTH,ComponentDrill
T2C0.0236
; #@! TA.AperFunction,Plated,PTH,ComponentDrill
T3C0.1063
%
G90
G05
T1
X5.7663Y-5.2299
X5.7663Y-5.285
X5.7939Y-5.2024
X5.7939Y-5.2575
X5.7939Y-5.3126
X5.8215Y-5.2299
X5.8215Y-5.285
X5.849Y-5.2024
X5.849Y-5.2575
X5.849Y-5.3126
X5.8766Y-5.2299
X5.8766Y-5.285
T3
X3.9921Y-3.3465
X4.1732Y-3.7657
X4.1732Y-4.0492
X4.1732Y-4.5138
X4.1732Y-4.7972
X4.1732Y-5.2618
X4.1732Y-5.5453
X4.2756Y-3.3465
X4.7205Y-3.3465
X5.0039Y-3.3465
X5.4685Y-3.3465
X5.752Y-3.3465
X6.2165Y-3.3661
X6.5Y-3.3661
X6.9055Y-3.3661
X7.0079Y-3.7953
X7.0079Y-4.0787
X7.0079Y-4.5728
X7.0079Y-4.8563
X7.0079Y-5.3012
X7.0079Y-5.5846
X7.189Y-3.3661
T2
G00X3.8681Y-3.0886
M15
G01X3.8681Y-3.1319
M16
G05
G00X3.9154Y-3.6417
M15
G01X3.9587Y-3.6417
M16
G05
G00X3.9154Y-4.1732
M15
G01X3.9587Y-4.1732
M16
G05
G00X3.9154Y-4.3898
M15
G01X3.9587Y-4.3898
M16
G05
G00X3.9154Y-4.9213
M15
G01X3.9587Y-4.9213
M16
G05
G00X3.9154Y-5.1378
M15
G01X3.9587Y-5.1378
M16
G05
G00X3.9154Y-5.6693
M15
G01X3.9587Y-5.6693
M16
G05
G00X4.3996Y-3.0886
M15
G01X4.3996Y-3.1319
M16
G05
G00X4.5965Y-3.0886
M15
G01X4.5965Y-3.1319
M16
G05
G00X5.128Y-3.0886
M15
G01X5.128Y-3.1319
M16
G05
G00X5.3445Y-3.0886
M15
G01X5.3445Y-3.1319
M16
G05
G00X5.6073Y-5.6867
M15
G01X5.6073Y-5.73
M16
G05
G00X5.6073Y-5.8568
M15
G01X5.6073Y-5.8883
M16
G05
G00X5.876Y-3.0886
M15
G01X5.876Y-3.1319
M16
G05
G00X5.9478Y-5.6867
M15
G01X5.9478Y-5.73
M16
G05
G00X5.9478Y-5.8568
M15
G01X5.9478Y-5.8883
M16
G05
G00X6.0925Y-3.1083
M15
G01X6.0925Y-3.1516
M16
G05
G00X6.624Y-3.1083
M15
G01X6.624Y-3.1516
M16
G05
G00X6.7815Y-3.1083
M15
G01X6.7815Y-3.1516
M16
G05
G00X7.2657Y-3.6713
M15
G01X7.2224Y-3.6713
M16
G05
G00X7.2657Y-4.2028
M15
G01X7.2224Y-4.2028
M16
G05
G00X7.2657Y-4.4488
M15
G01X7.2224Y-4.4488
M16
G05
G00X7.2657Y-4.9803
M15
G01X7.2224Y-4.9803
M16
G05
G00X7.2657Y-5.1772
M15
G01X7.2224Y-5.1772
M16
G05
G00X7.2657Y-5.7087
M15
G01X7.2224Y-5.7087
M16
G05
G00X7.313Y-3.1083
M15
G01X7.313Y-3.1516
M16
G05
M30
