%TF.GenerationSoftware,KiCad,Pcbnew,9.0.2*%
%TF.CreationDate,2025-11-05T15:04:59+13:00*%
%TF.ProjectId,Rob_Dev_Board,526f625f-4465-4765-9f42-6f6172642e6b,rev?*%
%TF.SameCoordinates,Original*%
%TF.FileFunction,Legend,Top*%
%TF.FilePolarity,Positive*%
%FSLAX46Y46*%
G04 Gerber Fmt 4.6, Leading zero omitted, Abs format (unit mm)*
G04 Created by KiCad (PCBNEW 9.0.2) date 2025-11-05 15:04:59*
%MOMM*%
%LPD*%
G01*
G04 APERTURE LIST*
%ADD10C,0.150000*%
%ADD11C,0.254000*%
%ADD12C,0.250000*%
%ADD13C,0.100000*%
%ADD14C,0.200000*%
%ADD15C,0.000000*%
%ADD16R,0.650001X0.249999*%
%ADD17R,0.249999X0.650001*%
%ADD18R,1.500000X0.900000*%
%ADD19R,0.900000X1.500000*%
%ADD20R,0.900000X0.900000*%
G04 APERTURE END LIST*
D10*
X102700594Y-80454818D02*
X102700594Y-81264341D01*
X102700594Y-81264341D02*
X102748213Y-81359579D01*
X102748213Y-81359579D02*
X102795832Y-81407199D01*
X102795832Y-81407199D02*
X102891070Y-81454818D01*
X102891070Y-81454818D02*
X103081546Y-81454818D01*
X103081546Y-81454818D02*
X103176784Y-81407199D01*
X103176784Y-81407199D02*
X103224403Y-81359579D01*
X103224403Y-81359579D02*
X103272022Y-81264341D01*
X103272022Y-81264341D02*
X103272022Y-80454818D01*
X104272022Y-81454818D02*
X103700594Y-81454818D01*
X103986308Y-81454818D02*
X103986308Y-80454818D01*
X103986308Y-80454818D02*
X103891070Y-80597675D01*
X103891070Y-80597675D02*
X103795832Y-80692913D01*
X103795832Y-80692913D02*
X103700594Y-80740532D01*
X95705032Y-76705018D02*
X95705032Y-75705018D01*
X95705032Y-75705018D02*
X95943127Y-75705018D01*
X95943127Y-75705018D02*
X96085984Y-75752637D01*
X96085984Y-75752637D02*
X96181222Y-75847875D01*
X96181222Y-75847875D02*
X96228841Y-75943113D01*
X96228841Y-75943113D02*
X96276460Y-76133589D01*
X96276460Y-76133589D02*
X96276460Y-76276446D01*
X96276460Y-76276446D02*
X96228841Y-76466922D01*
X96228841Y-76466922D02*
X96181222Y-76562160D01*
X96181222Y-76562160D02*
X96085984Y-76657399D01*
X96085984Y-76657399D02*
X95943127Y-76705018D01*
X95943127Y-76705018D02*
X95705032Y-76705018D01*
X97085984Y-76657399D02*
X96990746Y-76705018D01*
X96990746Y-76705018D02*
X96800270Y-76705018D01*
X96800270Y-76705018D02*
X96705032Y-76657399D01*
X96705032Y-76657399D02*
X96657413Y-76562160D01*
X96657413Y-76562160D02*
X96657413Y-76181208D01*
X96657413Y-76181208D02*
X96705032Y-76085970D01*
X96705032Y-76085970D02*
X96800270Y-76038351D01*
X96800270Y-76038351D02*
X96990746Y-76038351D01*
X96990746Y-76038351D02*
X97085984Y-76085970D01*
X97085984Y-76085970D02*
X97133603Y-76181208D01*
X97133603Y-76181208D02*
X97133603Y-76276446D01*
X97133603Y-76276446D02*
X96657413Y-76371684D01*
X97514556Y-76657399D02*
X97609794Y-76705018D01*
X97609794Y-76705018D02*
X97800270Y-76705018D01*
X97800270Y-76705018D02*
X97895508Y-76657399D01*
X97895508Y-76657399D02*
X97943127Y-76562160D01*
X97943127Y-76562160D02*
X97943127Y-76514541D01*
X97943127Y-76514541D02*
X97895508Y-76419303D01*
X97895508Y-76419303D02*
X97800270Y-76371684D01*
X97800270Y-76371684D02*
X97657413Y-76371684D01*
X97657413Y-76371684D02*
X97562175Y-76324065D01*
X97562175Y-76324065D02*
X97514556Y-76228827D01*
X97514556Y-76228827D02*
X97514556Y-76181208D01*
X97514556Y-76181208D02*
X97562175Y-76085970D01*
X97562175Y-76085970D02*
X97657413Y-76038351D01*
X97657413Y-76038351D02*
X97800270Y-76038351D01*
X97800270Y-76038351D02*
X97895508Y-76085970D01*
X98371699Y-76705018D02*
X98371699Y-76038351D01*
X98371699Y-75705018D02*
X98324080Y-75752637D01*
X98324080Y-75752637D02*
X98371699Y-75800256D01*
X98371699Y-75800256D02*
X98419318Y-75752637D01*
X98419318Y-75752637D02*
X98371699Y-75705018D01*
X98371699Y-75705018D02*
X98371699Y-75800256D01*
X99276460Y-76038351D02*
X99276460Y-76847875D01*
X99276460Y-76847875D02*
X99228841Y-76943113D01*
X99228841Y-76943113D02*
X99181222Y-76990732D01*
X99181222Y-76990732D02*
X99085984Y-77038351D01*
X99085984Y-77038351D02*
X98943127Y-77038351D01*
X98943127Y-77038351D02*
X98847889Y-76990732D01*
X99276460Y-76657399D02*
X99181222Y-76705018D01*
X99181222Y-76705018D02*
X98990746Y-76705018D01*
X98990746Y-76705018D02*
X98895508Y-76657399D01*
X98895508Y-76657399D02*
X98847889Y-76609779D01*
X98847889Y-76609779D02*
X98800270Y-76514541D01*
X98800270Y-76514541D02*
X98800270Y-76228827D01*
X98800270Y-76228827D02*
X98847889Y-76133589D01*
X98847889Y-76133589D02*
X98895508Y-76085970D01*
X98895508Y-76085970D02*
X98990746Y-76038351D01*
X98990746Y-76038351D02*
X99181222Y-76038351D01*
X99181222Y-76038351D02*
X99276460Y-76085970D01*
X99752651Y-76038351D02*
X99752651Y-76705018D01*
X99752651Y-76133589D02*
X99800270Y-76085970D01*
X99800270Y-76085970D02*
X99895508Y-76038351D01*
X99895508Y-76038351D02*
X100038365Y-76038351D01*
X100038365Y-76038351D02*
X100133603Y-76085970D01*
X100133603Y-76085970D02*
X100181222Y-76181208D01*
X100181222Y-76181208D02*
X100181222Y-76705018D01*
X101085984Y-76705018D02*
X101085984Y-76181208D01*
X101085984Y-76181208D02*
X101038365Y-76085970D01*
X101038365Y-76085970D02*
X100943127Y-76038351D01*
X100943127Y-76038351D02*
X100752651Y-76038351D01*
X100752651Y-76038351D02*
X100657413Y-76085970D01*
X101085984Y-76657399D02*
X100990746Y-76705018D01*
X100990746Y-76705018D02*
X100752651Y-76705018D01*
X100752651Y-76705018D02*
X100657413Y-76657399D01*
X100657413Y-76657399D02*
X100609794Y-76562160D01*
X100609794Y-76562160D02*
X100609794Y-76466922D01*
X100609794Y-76466922D02*
X100657413Y-76371684D01*
X100657413Y-76371684D02*
X100752651Y-76324065D01*
X100752651Y-76324065D02*
X100990746Y-76324065D01*
X100990746Y-76324065D02*
X101085984Y-76276446D01*
X101419318Y-76038351D02*
X101800270Y-76038351D01*
X101562175Y-75705018D02*
X101562175Y-76562160D01*
X101562175Y-76562160D02*
X101609794Y-76657399D01*
X101609794Y-76657399D02*
X101705032Y-76705018D01*
X101705032Y-76705018D02*
X101800270Y-76705018D01*
X102276461Y-76705018D02*
X102181223Y-76657399D01*
X102181223Y-76657399D02*
X102133604Y-76609779D01*
X102133604Y-76609779D02*
X102085985Y-76514541D01*
X102085985Y-76514541D02*
X102085985Y-76228827D01*
X102085985Y-76228827D02*
X102133604Y-76133589D01*
X102133604Y-76133589D02*
X102181223Y-76085970D01*
X102181223Y-76085970D02*
X102276461Y-76038351D01*
X102276461Y-76038351D02*
X102419318Y-76038351D01*
X102419318Y-76038351D02*
X102514556Y-76085970D01*
X102514556Y-76085970D02*
X102562175Y-76133589D01*
X102562175Y-76133589D02*
X102609794Y-76228827D01*
X102609794Y-76228827D02*
X102609794Y-76514541D01*
X102609794Y-76514541D02*
X102562175Y-76609779D01*
X102562175Y-76609779D02*
X102514556Y-76657399D01*
X102514556Y-76657399D02*
X102419318Y-76705018D01*
X102419318Y-76705018D02*
X102276461Y-76705018D01*
X103038366Y-76705018D02*
X103038366Y-76038351D01*
X103038366Y-76228827D02*
X103085985Y-76133589D01*
X103085985Y-76133589D02*
X103133604Y-76085970D01*
X103133604Y-76085970D02*
X103228842Y-76038351D01*
X103228842Y-76038351D02*
X103324080Y-76038351D01*
X103800271Y-76133589D02*
X103705033Y-76085970D01*
X103705033Y-76085970D02*
X103657414Y-76038351D01*
X103657414Y-76038351D02*
X103609795Y-75943113D01*
X103609795Y-75943113D02*
X103609795Y-75895494D01*
X103609795Y-75895494D02*
X103657414Y-75800256D01*
X103657414Y-75800256D02*
X103705033Y-75752637D01*
X103705033Y-75752637D02*
X103800271Y-75705018D01*
X103800271Y-75705018D02*
X103990747Y-75705018D01*
X103990747Y-75705018D02*
X104085985Y-75752637D01*
X104085985Y-75752637D02*
X104133604Y-75800256D01*
X104133604Y-75800256D02*
X104181223Y-75895494D01*
X104181223Y-75895494D02*
X104181223Y-75943113D01*
X104181223Y-75943113D02*
X104133604Y-76038351D01*
X104133604Y-76038351D02*
X104085985Y-76085970D01*
X104085985Y-76085970D02*
X103990747Y-76133589D01*
X103990747Y-76133589D02*
X103800271Y-76133589D01*
X103800271Y-76133589D02*
X103705033Y-76181208D01*
X103705033Y-76181208D02*
X103657414Y-76228827D01*
X103657414Y-76228827D02*
X103609795Y-76324065D01*
X103609795Y-76324065D02*
X103609795Y-76514541D01*
X103609795Y-76514541D02*
X103657414Y-76609779D01*
X103657414Y-76609779D02*
X103705033Y-76657399D01*
X103705033Y-76657399D02*
X103800271Y-76705018D01*
X103800271Y-76705018D02*
X103990747Y-76705018D01*
X103990747Y-76705018D02*
X104085985Y-76657399D01*
X104085985Y-76657399D02*
X104133604Y-76609779D01*
X104133604Y-76609779D02*
X104181223Y-76514541D01*
X104181223Y-76514541D02*
X104181223Y-76324065D01*
X104181223Y-76324065D02*
X104133604Y-76228827D01*
X104133604Y-76228827D02*
X104085985Y-76181208D01*
X104085985Y-76181208D02*
X103990747Y-76133589D01*
X104800271Y-75705018D02*
X104895509Y-75705018D01*
X104895509Y-75705018D02*
X104990747Y-75752637D01*
X104990747Y-75752637D02*
X105038366Y-75800256D01*
X105038366Y-75800256D02*
X105085985Y-75895494D01*
X105085985Y-75895494D02*
X105133604Y-76085970D01*
X105133604Y-76085970D02*
X105133604Y-76324065D01*
X105133604Y-76324065D02*
X105085985Y-76514541D01*
X105085985Y-76514541D02*
X105038366Y-76609779D01*
X105038366Y-76609779D02*
X104990747Y-76657399D01*
X104990747Y-76657399D02*
X104895509Y-76705018D01*
X104895509Y-76705018D02*
X104800271Y-76705018D01*
X104800271Y-76705018D02*
X104705033Y-76657399D01*
X104705033Y-76657399D02*
X104657414Y-76609779D01*
X104657414Y-76609779D02*
X104609795Y-76514541D01*
X104609795Y-76514541D02*
X104562176Y-76324065D01*
X104562176Y-76324065D02*
X104562176Y-76085970D01*
X104562176Y-76085970D02*
X104609795Y-75895494D01*
X104609795Y-75895494D02*
X104657414Y-75800256D01*
X104657414Y-75800256D02*
X104705033Y-75752637D01*
X104705033Y-75752637D02*
X104800271Y-75705018D01*
X106085985Y-76705018D02*
X105514557Y-76705018D01*
X105800271Y-76705018D02*
X105800271Y-75705018D01*
X105800271Y-75705018D02*
X105705033Y-75847875D01*
X105705033Y-75847875D02*
X105609795Y-75943113D01*
X105609795Y-75943113D02*
X105514557Y-75990732D01*
D11*
X80510237Y-80074318D02*
X80510237Y-78804318D01*
X81840714Y-79953365D02*
X81780238Y-80013842D01*
X81780238Y-80013842D02*
X81598809Y-80074318D01*
X81598809Y-80074318D02*
X81477857Y-80074318D01*
X81477857Y-80074318D02*
X81296428Y-80013842D01*
X81296428Y-80013842D02*
X81175476Y-79892889D01*
X81175476Y-79892889D02*
X81114999Y-79771937D01*
X81114999Y-79771937D02*
X81054523Y-79530032D01*
X81054523Y-79530032D02*
X81054523Y-79348603D01*
X81054523Y-79348603D02*
X81114999Y-79106699D01*
X81114999Y-79106699D02*
X81175476Y-78985746D01*
X81175476Y-78985746D02*
X81296428Y-78864794D01*
X81296428Y-78864794D02*
X81477857Y-78804318D01*
X81477857Y-78804318D02*
X81598809Y-78804318D01*
X81598809Y-78804318D02*
X81780238Y-78864794D01*
X81780238Y-78864794D02*
X81840714Y-78925270D01*
X82324523Y-78925270D02*
X82384999Y-78864794D01*
X82384999Y-78864794D02*
X82505952Y-78804318D01*
X82505952Y-78804318D02*
X82808333Y-78804318D01*
X82808333Y-78804318D02*
X82929285Y-78864794D01*
X82929285Y-78864794D02*
X82989761Y-78925270D01*
X82989761Y-78925270D02*
X83050238Y-79046222D01*
X83050238Y-79046222D02*
X83050238Y-79167175D01*
X83050238Y-79167175D02*
X82989761Y-79348603D01*
X82989761Y-79348603D02*
X82264047Y-80074318D01*
X82264047Y-80074318D02*
X83050238Y-80074318D01*
D10*
%TO.C,U1*%
X101662500Y-77599998D02*
X105262498Y-77599998D01*
X101662500Y-84400000D02*
X105262498Y-84400000D01*
D12*
X100987500Y-78625000D02*
G75*
G02*
X100737498Y-78625000I-125001J0D01*
G01*
X100737498Y-78625000D02*
G75*
G02*
X100987500Y-78625000I125001J0D01*
G01*
D13*
%TO.C,IC2*%
X71750000Y-73990000D02*
X71750000Y-73990000D01*
X71850000Y-73990000D02*
X71850000Y-73990000D01*
D14*
X72750000Y-66500000D02*
X90750000Y-66500000D01*
X72750000Y-73250000D02*
X72750000Y-66500000D01*
X90750000Y-66500000D02*
X90750000Y-73250000D01*
D13*
X71750000Y-73990000D02*
G75*
G02*
X71850000Y-73990000I50000J0D01*
G01*
X71850000Y-73990000D02*
G75*
G02*
X71750000Y-73990000I-50000J0D01*
G01*
%TD*%
%LPC*%
D15*
%TO.C,U1*%
G36*
X103337498Y-81049999D02*
G01*
X103337498Y-81349998D01*
X103287498Y-81399998D01*
X101862500Y-81399998D01*
X101862500Y-81325000D01*
X101562498Y-81325000D01*
X101512498Y-81274997D01*
X101512500Y-81125000D01*
X101562500Y-81075000D01*
X101862500Y-81075000D01*
X101862500Y-80999999D01*
X103287498Y-80999999D01*
X103337498Y-81049999D01*
G37*
G36*
X103337498Y-81850000D02*
G01*
X103337498Y-82149999D01*
X103287498Y-82199997D01*
X101862500Y-82199999D01*
X101862500Y-82124998D01*
X101562498Y-82124998D01*
X101512498Y-82074998D01*
X101512500Y-81925001D01*
X101562500Y-81875001D01*
X101862500Y-81874999D01*
X101862500Y-81800000D01*
X103287498Y-81800000D01*
X103337498Y-81850000D01*
G37*
G36*
X105062498Y-81874999D02*
G01*
X105362498Y-81875001D01*
X105412498Y-81925001D01*
X105412500Y-82074998D01*
X105362500Y-82124998D01*
X105062498Y-82124998D01*
X105062498Y-82199999D01*
X103637500Y-82199997D01*
X103587500Y-82149999D01*
X103587500Y-81850000D01*
X103637500Y-81800000D01*
X105062498Y-81800000D01*
X105062498Y-81874999D01*
G37*
G36*
X105062498Y-81075000D02*
G01*
X105362498Y-81075003D01*
X105412500Y-81125003D01*
X105412500Y-81274997D01*
X105362500Y-81325000D01*
X105062498Y-81325000D01*
X105062498Y-81399998D01*
X103637500Y-81399996D01*
X103587500Y-81349998D01*
X103587500Y-81049999D01*
X103637500Y-80999999D01*
X105062498Y-80999999D01*
X105062498Y-81075000D01*
G37*
G36*
X105062498Y-80174999D02*
G01*
X105362498Y-80174999D01*
X105412500Y-80224999D01*
X105412498Y-80374999D01*
X105362498Y-80424999D01*
X105062498Y-80424999D01*
X105062498Y-80500000D01*
X101862500Y-80500000D01*
X101862500Y-80424999D01*
X101562500Y-80424999D01*
X101512498Y-80374999D01*
X101512500Y-80224999D01*
X101562500Y-80174999D01*
X101862500Y-80174999D01*
X101862500Y-80099998D01*
X105062498Y-80099998D01*
X105062498Y-80174999D01*
G37*
G36*
X105062498Y-82774999D02*
G01*
X105362498Y-82774999D01*
X105412500Y-82824999D01*
X105412500Y-82974999D01*
X105362498Y-83024999D01*
X105062498Y-83024999D01*
X105062498Y-83100000D01*
X104337499Y-83100000D01*
X104337499Y-83899998D01*
X104287499Y-83949998D01*
X104137499Y-83949998D01*
X104087499Y-83899998D01*
X104087499Y-83100000D01*
X103837500Y-83100000D01*
X103837500Y-83899998D01*
X103787500Y-83949998D01*
X103637500Y-83949998D01*
X103587500Y-83899998D01*
X103587500Y-83100000D01*
X103337498Y-83100000D01*
X103337498Y-83899998D01*
X103287498Y-83949998D01*
X103137498Y-83949998D01*
X103087498Y-83899998D01*
X103087498Y-83100000D01*
X102837499Y-83100000D01*
X102837499Y-83899998D01*
X102787499Y-83949998D01*
X102637499Y-83949998D01*
X102587499Y-83899998D01*
X102587499Y-83100000D01*
X101862500Y-83100000D01*
X101862500Y-83024999D01*
X101562500Y-83024999D01*
X101512498Y-82974999D01*
X101512500Y-82824999D01*
X101562500Y-82774999D01*
X101862500Y-82774999D01*
X101862500Y-82699998D01*
X105062498Y-82699998D01*
X105062498Y-82774999D01*
G37*
%TD*%
D16*
%TO.C,U1*%
X101837498Y-78625000D03*
X101837498Y-79124999D03*
X101837498Y-79624998D03*
X105087500Y-79624998D03*
X105087500Y-79124999D03*
X105087500Y-78625000D03*
D17*
X104212500Y-78374998D03*
X103712499Y-78374998D03*
X103212499Y-78374998D03*
X102712498Y-78374998D03*
%TD*%
D18*
%TO.C,IC2*%
X73000000Y-73990000D03*
X73000000Y-75260000D03*
X73000000Y-76530000D03*
X73000000Y-77800000D03*
X73000000Y-79070000D03*
X73000000Y-80340000D03*
X73000000Y-81610000D03*
X73000000Y-82880000D03*
X73000000Y-84150000D03*
X73000000Y-85420000D03*
X73000000Y-86690000D03*
X73000000Y-87960000D03*
X73000000Y-89230000D03*
X73000000Y-90500000D03*
D19*
X74765000Y-91750000D03*
X76035000Y-91750000D03*
X77305000Y-91750000D03*
X78575000Y-91750000D03*
X79845000Y-91750000D03*
X81115000Y-91750000D03*
X82385000Y-91750000D03*
X83655000Y-91750000D03*
X84925000Y-91750000D03*
X86195000Y-91750000D03*
X87465000Y-91750000D03*
X88735000Y-91750000D03*
D18*
X90500000Y-90500000D03*
X90500000Y-89230000D03*
X90500000Y-87960000D03*
X90500000Y-86690000D03*
X90500000Y-85420000D03*
X90500000Y-84150000D03*
X90500000Y-82880000D03*
X90500000Y-81610000D03*
X90500000Y-80340000D03*
X90500000Y-79070000D03*
X90500000Y-77800000D03*
X90500000Y-76530000D03*
X90500000Y-75260000D03*
X90500000Y-73990000D03*
D20*
X80250000Y-81710000D03*
X78850000Y-80310000D03*
X78850000Y-81710000D03*
X78850000Y-83110000D03*
X80250000Y-83110000D03*
X81650000Y-83110000D03*
X81650000Y-81710000D03*
X81650000Y-80310000D03*
X80250000Y-80310000D03*
%TD*%
%LPD*%
M02*
