%TF.GenerationSoftware,KiCad,Pcbnew,9.0.2*%
%TF.CreationDate,2025-11-27T20:34:37+13:00*%
%TF.ProjectId,Rob_Dev_Board,526f625f-4465-4765-9f42-6f6172642e6b,rev?*%
%TF.SameCoordinates,Original*%
%TF.FileFunction,Copper,L1,Top*%
%TF.FilePolarity,Positive*%
%FSLAX46Y46*%
G04 Gerber Fmt 4.6, Leading zero omitted, Abs format (unit mm)*
G04 Created by KiCad (PCBNEW 9.0.2) date 2025-11-27 20:34:37*
%MOMM*%
%LPD*%
G01*
G04 APERTURE LIST*
%TA.AperFunction,ComponentPad*%
%ADD10R,3.716000X3.716000*%
%TD*%
%TA.AperFunction,ComponentPad*%
%ADD11C,3.716000*%
%TD*%
%TA.AperFunction,ComponentPad*%
%ADD12O,1.200000X2.400000*%
%TD*%
%TA.AperFunction,ComponentPad*%
%ADD13O,2.400000X1.200000*%
%TD*%
%TA.AperFunction,SMDPad,CuDef*%
%ADD14R,0.249999X0.650001*%
%TD*%
%TA.AperFunction,SMDPad,CuDef*%
%ADD15R,0.499999X4.000000*%
%TD*%
%TA.AperFunction,SMDPad,CuDef*%
%ADD16R,0.499999X1.925000*%
%TD*%
%TA.AperFunction,SMDPad,CuDef*%
%ADD17R,1.350000X4.000000*%
%TD*%
%TA.AperFunction,SMDPad,CuDef*%
%ADD18R,0.650001X0.249999*%
%TD*%
%TA.AperFunction,SMDPad,CuDef*%
%ADD19R,0.790000X0.280000*%
%TD*%
%TA.AperFunction,SMDPad,CuDef*%
%ADD20R,0.280000X0.790000*%
%TD*%
%TA.AperFunction,SMDPad,CuDef*%
%ADD21R,0.600000X1.140000*%
%TD*%
%TA.AperFunction,SMDPad,CuDef*%
%ADD22R,0.300000X1.140000*%
%TD*%
%TA.AperFunction,ComponentPad*%
%ADD23O,0.900000X2.000000*%
%TD*%
%TA.AperFunction,ComponentPad*%
%ADD24O,0.900000X1.700000*%
%TD*%
%TA.AperFunction,SMDPad,CuDef*%
%ADD25R,0.355600X1.473200*%
%TD*%
%TA.AperFunction,SMDPad,CuDef*%
%ADD26R,1.500000X0.900000*%
%TD*%
%TA.AperFunction,SMDPad,CuDef*%
%ADD27R,0.900000X1.500000*%
%TD*%
%TA.AperFunction,SMDPad,CuDef*%
%ADD28R,0.900000X0.900000*%
%TD*%
%TA.AperFunction,ComponentPad*%
%ADD29C,0.400000*%
%TD*%
G04 APERTURE END LIST*
D10*
%TO.P,J11,1,+*%
%TO.N,unconnected-(J11-+-Pad1)*%
X182600000Y-85500000D03*
D11*
%TO.P,J11,2,-*%
%TO.N,unconnected-(J11---Pad2)*%
X175400000Y-85500000D03*
D12*
%TO.P,J11,S1*%
%TO.N,N/C*%
X185750000Y-79500000D03*
%TO.P,J11,S2*%
X172250000Y-79500000D03*
%TD*%
D10*
%TO.P,J12,1,+*%
%TO.N,unconnected-(J12-+-Pad1)*%
X165100000Y-85500000D03*
D11*
%TO.P,J12,2,-*%
%TO.N,unconnected-(J12---Pad2)*%
X157900000Y-85500000D03*
D12*
%TO.P,J12,S1*%
%TO.N,N/C*%
X168250000Y-79500000D03*
%TO.P,J12,S2*%
X154750000Y-79500000D03*
%TD*%
D10*
%TO.P,J7,1,+*%
%TO.N,unconnected-(J7-+-Pad1)*%
X178000000Y-141850000D03*
D11*
%TO.P,J7,2,-*%
%TO.N,unconnected-(J7---Pad2)*%
X178000000Y-134650000D03*
D13*
%TO.P,J7,S1*%
%TO.N,N/C*%
X184000000Y-145000000D03*
%TO.P,J7,S2*%
X184000000Y-131500000D03*
%TD*%
D10*
%TO.P,J8,1,+*%
%TO.N,unconnected-(J8-+-Pad1)*%
X127100000Y-85000000D03*
D11*
%TO.P,J8,2,-*%
%TO.N,unconnected-(J8---Pad2)*%
X119900000Y-85000000D03*
D12*
%TO.P,J8,S1*%
%TO.N,N/C*%
X130250000Y-79000000D03*
%TO.P,J8,S2*%
X116750000Y-79000000D03*
%TD*%
D10*
%TO.P,J3,1,+*%
%TO.N,unconnected-(J3-+-Pad1)*%
X108600000Y-85000000D03*
D11*
%TO.P,J3,2,-*%
%TO.N,unconnected-(J3---Pad2)*%
X101400000Y-85000000D03*
D12*
%TO.P,J3,S1*%
%TO.N,N/C*%
X111750000Y-79000000D03*
%TO.P,J3,S2*%
X98250000Y-79000000D03*
%TD*%
D14*
%TO.P,U3,1,FAULT_N*%
%TO.N,unconnected-(U3-FAULT_N-Pad1)*%
X115749998Y-135624999D03*
%TO.P,U3,2,IPROPI*%
%TO.N,unconnected-(U3-IPROPI-Pad2)*%
X115249999Y-135624999D03*
%TO.P,U3,3,SLEEP_N*%
%TO.N,unconnected-(U3-SLEEP_N-Pad3)*%
X114750000Y-135624999D03*
D15*
%TO.P,U3,4,VM*%
%TO.N,unconnected-(U3-VM-Pad4)*%
X114075000Y-137250000D03*
D16*
%TO.P,U3,5,OUT2*%
%TO.N,unconnected-(U3-OUT2-Pad5)*%
X113174999Y-136212499D03*
%TO.P,U3,6,OUT2*%
%TO.N,unconnected-(U3-OUT2-Pad6)*%
X112374998Y-136212499D03*
D17*
%TO.P,U3,7,GND*%
%TO.N,unconnected-(U3-GND-Pad7)*%
X111050000Y-137250000D03*
D16*
%TO.P,U3,8,OUT1*%
%TO.N,unconnected-(U3-OUT1-Pad8)*%
X112374998Y-138287501D03*
%TO.P,U3,9,OUT1*%
%TO.N,unconnected-(U3-OUT1-Pad9)*%
X113174999Y-138287501D03*
D14*
%TO.P,U3,10,DRVOFF*%
%TO.N,unconnected-(U3-DRVOFF-Pad10)*%
X114750000Y-138875001D03*
%TO.P,U3,11,EN_IN1*%
%TO.N,unconnected-(U3-EN_IN1-Pad11)*%
X115249999Y-138875001D03*
%TO.P,U3,12,PH_IN2*%
%TO.N,unconnected-(U3-PH_IN2-Pad12)*%
X115749998Y-138875001D03*
D18*
%TO.P,U3,13,DIAG*%
%TO.N,unconnected-(U3-DIAG-Pad13)*%
X116000000Y-138000001D03*
%TO.P,U3,14,SR*%
%TO.N,unconnected-(U3-SR-Pad14)*%
X116000000Y-137500000D03*
%TO.P,U3,15,ITRIP*%
%TO.N,unconnected-(U3-ITRIP-Pad15)*%
X116000000Y-137000000D03*
%TO.P,U3,16,MODE*%
%TO.N,unconnected-(U3-MODE-Pad16)*%
X116000000Y-136499999D03*
%TD*%
D10*
%TO.P,J4,1,+*%
%TO.N,unconnected-(J4-+-Pad1)*%
X106000000Y-95650000D03*
D11*
%TO.P,J4,2,-*%
%TO.N,unconnected-(J4---Pad2)*%
X106000000Y-102850000D03*
D13*
%TO.P,J4,S1*%
%TO.N,N/C*%
X100000000Y-92500000D03*
%TO.P,J4,S2*%
X100000000Y-106000000D03*
%TD*%
D14*
%TO.P,U1,1,FAULT_N*%
%TO.N,unconnected-(U1-FAULT_N-Pad1)*%
X169825002Y-139625001D03*
%TO.P,U1,2,IPROPI*%
%TO.N,unconnected-(U1-IPROPI-Pad2)*%
X170325001Y-139625001D03*
%TO.P,U1,3,SLEEP_N*%
%TO.N,unconnected-(U1-SLEEP_N-Pad3)*%
X170825000Y-139625001D03*
D15*
%TO.P,U1,4,VM*%
%TO.N,unconnected-(U1-VM-Pad4)*%
X171500000Y-138000000D03*
D16*
%TO.P,U1,5,OUT2*%
%TO.N,unconnected-(U1-OUT2-Pad5)*%
X172400001Y-139037501D03*
%TO.P,U1,6,OUT2*%
%TO.N,unconnected-(U1-OUT2-Pad6)*%
X173200002Y-139037501D03*
D17*
%TO.P,U1,7,GND*%
%TO.N,unconnected-(U1-GND-Pad7)*%
X174525000Y-138000000D03*
D16*
%TO.P,U1,8,OUT1*%
%TO.N,unconnected-(U1-OUT1-Pad8)*%
X173200002Y-136962499D03*
%TO.P,U1,9,OUT1*%
%TO.N,unconnected-(U1-OUT1-Pad9)*%
X172400001Y-136962499D03*
D14*
%TO.P,U1,10,DRVOFF*%
%TO.N,unconnected-(U1-DRVOFF-Pad10)*%
X170825000Y-136374999D03*
%TO.P,U1,11,EN_IN1*%
%TO.N,unconnected-(U1-EN_IN1-Pad11)*%
X170325001Y-136374999D03*
%TO.P,U1,12,PH_IN2*%
%TO.N,unconnected-(U1-PH_IN2-Pad12)*%
X169825002Y-136374999D03*
D18*
%TO.P,U1,13,DIAG*%
%TO.N,unconnected-(U1-DIAG-Pad13)*%
X169575000Y-137249999D03*
%TO.P,U1,14,SR*%
%TO.N,unconnected-(U1-SR-Pad14)*%
X169575000Y-137750000D03*
%TO.P,U1,15,ITRIP*%
%TO.N,unconnected-(U1-ITRIP-Pad15)*%
X169575000Y-138250000D03*
%TO.P,U1,16,MODE*%
%TO.N,unconnected-(U1-MODE-Pad16)*%
X169575000Y-138750001D03*
%TD*%
D19*
%TO.P,U5,1,CLKIN*%
%TO.N,unconnected-(U5-CLKIN-Pad1)*%
X129780000Y-129220000D03*
%TO.P,U5,2,NC*%
%TO.N,Net-(U5-NC-Pad14)*%
X129780000Y-129720000D03*
%TO.P,U5,3,NC*%
X129780000Y-130220000D03*
%TO.P,U5,4,NC*%
X129780000Y-130720000D03*
%TO.P,U5,5,NC*%
X129780000Y-131220000D03*
%TO.P,U5,6,AUX_DA*%
%TO.N,unconnected-(U5-AUX_DA-Pad6)*%
X129780000Y-131720000D03*
D20*
%TO.P,U5,7,AUX_CL*%
%TO.N,unconnected-(U5-AUX_CL-Pad7)*%
X130500000Y-132440000D03*
%TO.P,U5,8,VLOGIC*%
%TO.N,unconnected-(U5-VLOGIC-Pad8)*%
X131000000Y-132440000D03*
%TO.P,U5,9,AD0*%
%TO.N,unconnected-(U5-AD0-Pad9)*%
X131500000Y-132440000D03*
%TO.P,U5,10,REGOUT*%
%TO.N,unconnected-(U5-REGOUT-Pad10)*%
X132000000Y-132440000D03*
%TO.P,U5,11,FSYNC*%
%TO.N,unconnected-(U5-FSYNC-Pad11)*%
X132500000Y-132440000D03*
%TO.P,U5,12,INT*%
%TO.N,unconnected-(U5-INT-Pad12)*%
X133000000Y-132440000D03*
D19*
%TO.P,U5,13,VDD*%
%TO.N,unconnected-(U5-VDD-Pad13)*%
X133720000Y-131720000D03*
%TO.P,U5,14,NC*%
%TO.N,Net-(U5-NC-Pad14)*%
X133720000Y-131220000D03*
%TO.P,U5,15,NC*%
X133720000Y-130720000D03*
%TO.P,U5,16,NC*%
X133720000Y-130220000D03*
%TO.P,U5,17,NC*%
X133720000Y-129720000D03*
%TO.P,U5,18,GND*%
%TO.N,unconnected-(U5-GND-Pad18)*%
X133720000Y-129220000D03*
D20*
%TO.P,U5,19,RESV*%
%TO.N,unconnected-(U5-RESV-Pad19)*%
X133000000Y-128500000D03*
%TO.P,U5,20,CPOUT*%
%TO.N,unconnected-(U5-CPOUT-Pad20)*%
X132500000Y-128500000D03*
%TO.P,U5,21,RESV*%
%TO.N,unconnected-(U5-RESV-Pad21)*%
X132000000Y-128500000D03*
%TO.P,U5,22,RESV*%
%TO.N,unconnected-(U5-RESV-Pad22)*%
X131500000Y-128500000D03*
%TO.P,U5,23,SCL*%
%TO.N,unconnected-(U5-SCL-Pad23)*%
X131000000Y-128500000D03*
%TO.P,U5,24,SDA*%
%TO.N,unconnected-(U5-SDA-Pad24)*%
X130500000Y-128500000D03*
%TD*%
D21*
%TO.P,J1,A1_B12,GND*%
%TO.N,Net-(J1-GND-PadA1_B12)*%
X143550000Y-144412500D03*
%TO.P,J1,A4_B9,VBUS*%
%TO.N,Net-(J1-VBUS-PadA4_B9)*%
X144350000Y-144412500D03*
D22*
%TO.P,J1,A5,CC1*%
%TO.N,unconnected-(J1-CC1-PadA5)*%
X145500000Y-144412500D03*
%TO.P,J1,A6,DP1*%
%TO.N,unconnected-(J1-DP1-PadA6)*%
X146500000Y-144412500D03*
%TO.P,J1,A7,DN1*%
%TO.N,unconnected-(J1-DN1-PadA7)*%
X147000000Y-144412500D03*
%TO.P,J1,A8,SBU1*%
%TO.N,unconnected-(J1-SBU1-PadA8)*%
X148000000Y-144412500D03*
D21*
%TO.P,J1,B1_A12,GND*%
%TO.N,Net-(J1-GND-PadA1_B12)*%
X149950000Y-144412500D03*
%TO.P,J1,B4_A9,VBUS*%
%TO.N,Net-(J1-VBUS-PadA4_B9)*%
X149150000Y-144412500D03*
D22*
%TO.P,J1,B5,CC2*%
%TO.N,unconnected-(J1-CC2-PadB5)*%
X148500000Y-144412500D03*
%TO.P,J1,B6,DP2*%
%TO.N,unconnected-(J1-DP2-PadB6)*%
X147500000Y-144412500D03*
%TO.P,J1,B7,DN2*%
%TO.N,unconnected-(J1-DN2-PadB7)*%
X146000000Y-144412500D03*
%TO.P,J1,B8,SBU2*%
%TO.N,unconnected-(J1-SBU2-PadB8)*%
X145000000Y-144412500D03*
D23*
%TO.P,J1,S1,SHIELD*%
%TO.N,Net-(J1-SHIELD-PadS1)*%
X142425000Y-144992500D03*
%TO.P,J1,S2,SHIELD*%
X151075000Y-144992500D03*
D24*
%TO.P,J1,S3,SHIELD*%
X142425000Y-149162500D03*
%TO.P,J1,S4,SHIELD*%
X151075000Y-149162500D03*
%TD*%
D10*
%TO.P,J9,1,+*%
%TO.N,unconnected-(J9-+-Pad1)*%
X178000000Y-123350000D03*
D11*
%TO.P,J9,2,-*%
%TO.N,unconnected-(J9---Pad2)*%
X178000000Y-116150000D03*
D13*
%TO.P,J9,S1*%
%TO.N,N/C*%
X184000000Y-126500000D03*
%TO.P,J9,S2*%
X184000000Y-113000000D03*
%TD*%
D10*
%TO.P,J5,1,+*%
%TO.N,unconnected-(J5-+-Pad1)*%
X106000000Y-114650000D03*
D11*
%TO.P,J5,2,-*%
%TO.N,unconnected-(J5---Pad2)*%
X106000000Y-121850000D03*
D13*
%TO.P,J5,S1*%
%TO.N,N/C*%
X100000000Y-111500000D03*
%TO.P,J5,S2*%
X100000000Y-125000000D03*
%TD*%
D10*
%TO.P,J2,1,+*%
%TO.N,unconnected-(J2-+-Pad1)*%
X146100000Y-85000000D03*
D11*
%TO.P,J2,2,-*%
%TO.N,unconnected-(J2---Pad2)*%
X138900000Y-85000000D03*
D12*
%TO.P,J2,S1*%
%TO.N,N/C*%
X149250000Y-79000000D03*
%TO.P,J2,S2*%
X135750000Y-79000000D03*
%TD*%
D10*
%TO.P,J10,1,+*%
%TO.N,unconnected-(J10-+-Pad1)*%
X178000000Y-103600000D03*
D11*
%TO.P,J10,2,-*%
%TO.N,unconnected-(J10---Pad2)*%
X178000000Y-96400000D03*
D13*
%TO.P,J10,S1*%
%TO.N,N/C*%
X184000000Y-106750000D03*
%TO.P,J10,S2*%
X184000000Y-93250000D03*
%TD*%
D25*
%TO.P,U4,1,A0*%
%TO.N,unconnected-(U4-A0-Pad1)*%
X142283600Y-115921000D03*
%TO.P,U4,2,A1*%
%TO.N,unconnected-(U4-A1-Pad2)*%
X142918600Y-115921000D03*
%TO.P,U4,3,A2*%
%TO.N,unconnected-(U4-A2-Pad3)*%
X143579000Y-115921000D03*
%TO.P,U4,4,A3*%
%TO.N,unconnected-(U4-A3-Pad4)*%
X144214000Y-115921000D03*
%TO.P,U4,5,A4*%
%TO.N,unconnected-(U4-A4-Pad5)*%
X144874400Y-115921000D03*
%TO.P,U4,6,LED0*%
%TO.N,unconnected-(U4-LED0-Pad6)*%
X145534800Y-115921000D03*
%TO.P,U4,7,LED1*%
%TO.N,unconnected-(U4-LED1-Pad7)*%
X146169800Y-115921000D03*
%TO.P,U4,8,LED2*%
%TO.N,unconnected-(U4-LED2-Pad8)*%
X146830200Y-115921000D03*
%TO.P,U4,9,LED3*%
%TO.N,unconnected-(U4-LED3-Pad9)*%
X147465200Y-115921000D03*
%TO.P,U4,10,LED4*%
%TO.N,unconnected-(U4-LED4-Pad10)*%
X148125600Y-115921000D03*
%TO.P,U4,11,LED5*%
%TO.N,unconnected-(U4-LED5-Pad11)*%
X148786000Y-115921000D03*
%TO.P,U4,12,LED6*%
%TO.N,unconnected-(U4-LED6-Pad12)*%
X149421000Y-115921000D03*
%TO.P,U4,13,LED7*%
%TO.N,unconnected-(U4-LED7-Pad13)*%
X150081400Y-115921000D03*
%TO.P,U4,14,VSS*%
%TO.N,unconnected-(U4-VSS-Pad14)*%
X150716400Y-115921000D03*
%TO.P,U4,15,LED8*%
%TO.N,unconnected-(U4-LED8-Pad15)*%
X150716400Y-110079000D03*
%TO.P,U4,16,LED9*%
%TO.N,unconnected-(U4-LED9-Pad16)*%
X150081400Y-110079000D03*
%TO.P,U4,17,LED10*%
%TO.N,unconnected-(U4-LED10-Pad17)*%
X149421000Y-110079000D03*
%TO.P,U4,18,LED11*%
%TO.N,unconnected-(U4-LED11-Pad18)*%
X148786000Y-110079000D03*
%TO.P,U4,19,LED12*%
%TO.N,unconnected-(U4-LED12-Pad19)*%
X148125600Y-110079000D03*
%TO.P,U4,20,LED13*%
%TO.N,unconnected-(U4-LED13-Pad20)*%
X147465200Y-110079000D03*
%TO.P,U4,21,LED14*%
%TO.N,unconnected-(U4-LED14-Pad21)*%
X146830200Y-110079000D03*
%TO.P,U4,22,LED15*%
%TO.N,unconnected-(U4-LED15-Pad22)*%
X146169800Y-110079000D03*
%TO.P,U4,23,~OE*%
%TO.N,unconnected-(U4-~OE-Pad23)*%
X145534800Y-110079000D03*
%TO.P,U4,24,A5*%
%TO.N,unconnected-(U4-A5-Pad24)*%
X144874400Y-110079000D03*
%TO.P,U4,25,EXTCLK*%
%TO.N,unconnected-(U4-EXTCLK-Pad25)*%
X144214000Y-110079000D03*
%TO.P,U4,26,SCL*%
%TO.N,unconnected-(U4-SCL-Pad26)*%
X143579000Y-110079000D03*
%TO.P,U4,27,SDA*%
%TO.N,unconnected-(U4-SDA-Pad27)*%
X142918600Y-110079000D03*
%TO.P,U4,28,VDD*%
%TO.N,unconnected-(U4-VDD-Pad28)*%
X142283600Y-110079000D03*
%TD*%
D10*
%TO.P,J6,1,+*%
%TO.N,unconnected-(J6-+-Pad1)*%
X106000000Y-133650000D03*
D11*
%TO.P,J6,2,-*%
%TO.N,unconnected-(J6---Pad2)*%
X106000000Y-140850000D03*
D13*
%TO.P,J6,S1*%
%TO.N,N/C*%
X100000000Y-130500000D03*
%TO.P,J6,S2*%
X100000000Y-144000000D03*
%TD*%
D26*
%TO.P,U2,1,GND*%
%TO.N,unconnected-(U2-GND-Pad1)*%
X155115000Y-141260000D03*
%TO.P,U2,2,3V3*%
%TO.N,unconnected-(U2-3V3-Pad2)*%
X155115000Y-139990000D03*
%TO.P,U2,3,EN*%
%TO.N,unconnected-(U2-EN-Pad3)*%
X155115000Y-138720000D03*
%TO.P,U2,4,IO4*%
%TO.N,unconnected-(U2-IO4-Pad4)*%
X155115000Y-137450000D03*
%TO.P,U2,5,IO5*%
%TO.N,unconnected-(U2-IO5-Pad5)*%
X155115000Y-136180000D03*
%TO.P,U2,6,IO6*%
%TO.N,unconnected-(U2-IO6-Pad6)*%
X155115000Y-134910000D03*
%TO.P,U2,7,IO7*%
%TO.N,unconnected-(U2-IO7-Pad7)*%
X155115000Y-133640000D03*
%TO.P,U2,8,IO15*%
%TO.N,unconnected-(U2-IO15-Pad8)*%
X155115000Y-132370000D03*
%TO.P,U2,9,IO16*%
%TO.N,unconnected-(U2-IO16-Pad9)*%
X155115000Y-131100000D03*
%TO.P,U2,10,IO17*%
%TO.N,unconnected-(U2-IO17-Pad10)*%
X155115000Y-129830000D03*
%TO.P,U2,11,IO18*%
%TO.N,unconnected-(U2-IO18-Pad11)*%
X155115000Y-128560000D03*
%TO.P,U2,12,IO8*%
%TO.N,unconnected-(U2-IO8-Pad12)*%
X155115000Y-127290000D03*
%TO.P,U2,13,IO19*%
%TO.N,unconnected-(U2-IO19-Pad13)*%
X155115000Y-126020000D03*
%TO.P,U2,14,IO20*%
%TO.N,unconnected-(U2-IO20-Pad14)*%
X155115000Y-124750000D03*
D27*
%TO.P,U2,15,IO3*%
%TO.N,unconnected-(U2-IO3-Pad15)*%
X153350000Y-123500000D03*
%TO.P,U2,16,IO46*%
%TO.N,unconnected-(U2-IO46-Pad16)*%
X152080000Y-123500000D03*
%TO.P,U2,17,IO9*%
%TO.N,unconnected-(U2-IO9-Pad17)*%
X150810000Y-123500000D03*
%TO.P,U2,18,IO10*%
%TO.N,unconnected-(U2-IO10-Pad18)*%
X149540000Y-123500000D03*
%TO.P,U2,19,IO11*%
%TO.N,unconnected-(U2-IO11-Pad19)*%
X148270000Y-123500000D03*
%TO.P,U2,20,IO12*%
%TO.N,unconnected-(U2-IO12-Pad20)*%
X147000000Y-123500000D03*
%TO.P,U2,21,IO13*%
%TO.N,unconnected-(U2-IO13-Pad21)*%
X145730000Y-123500000D03*
%TO.P,U2,22,IO14*%
%TO.N,unconnected-(U2-IO14-Pad22)*%
X144460000Y-123500000D03*
%TO.P,U2,23,IO21*%
%TO.N,unconnected-(U2-IO21-Pad23)*%
X143190000Y-123500000D03*
%TO.P,U2,24,IO47*%
%TO.N,unconnected-(U2-IO47-Pad24)*%
X141920000Y-123500000D03*
%TO.P,U2,25,IO48*%
%TO.N,unconnected-(U2-IO48-Pad25)*%
X140650000Y-123500000D03*
%TO.P,U2,26,IO45*%
%TO.N,unconnected-(U2-IO45-Pad26)*%
X139380000Y-123500000D03*
D26*
%TO.P,U2,27,IO0*%
%TO.N,unconnected-(U2-IO0-Pad27)*%
X137615000Y-124750000D03*
%TO.P,U2,28,IO35*%
%TO.N,unconnected-(U2-IO35-Pad28)*%
X137615000Y-126020000D03*
%TO.P,U2,29,IO36*%
%TO.N,unconnected-(U2-IO36-Pad29)*%
X137615000Y-127290000D03*
%TO.P,U2,30,IO37*%
%TO.N,unconnected-(U2-IO37-Pad30)*%
X137615000Y-128560000D03*
%TO.P,U2,31,IO38*%
%TO.N,unconnected-(U2-IO38-Pad31)*%
X137615000Y-129830000D03*
%TO.P,U2,32,IO39*%
%TO.N,unconnected-(U2-IO39-Pad32)*%
X137615000Y-131100000D03*
%TO.P,U2,33,IO40*%
%TO.N,unconnected-(U2-IO40-Pad33)*%
X137615000Y-132370000D03*
%TO.P,U2,34,IO41*%
%TO.N,unconnected-(U2-IO41-Pad34)*%
X137615000Y-133640000D03*
%TO.P,U2,35,IO42*%
%TO.N,unconnected-(U2-IO42-Pad35)*%
X137615000Y-134910000D03*
%TO.P,U2,36,RXD0*%
%TO.N,unconnected-(U2-RXD0-Pad36)*%
X137615000Y-136180000D03*
%TO.P,U2,37,TXD0*%
%TO.N,unconnected-(U2-TXD0-Pad37)*%
X137615000Y-137450000D03*
%TO.P,U2,38,IO2*%
%TO.N,unconnected-(U2-IO2-Pad38)*%
X137615000Y-138720000D03*
%TO.P,U2,39,IO1*%
%TO.N,unconnected-(U2-IO1-Pad39)*%
X137615000Y-139990000D03*
%TO.P,U2,40,GND__1*%
%TO.N,unconnected-(U2-GND__1-Pad40)*%
X137615000Y-141260000D03*
D28*
%TO.P,U2,41_1,GND__2*%
%TO.N,unconnected-(U2-GND__2-Pad41_1)*%
X149265000Y-134940000D03*
%TO.P,U2,41_2,GND__3*%
%TO.N,unconnected-(U2-GND__3-Pad41_2)*%
X147865000Y-134940000D03*
%TO.P,U2,41_3,GND__4*%
%TO.N,unconnected-(U2-GND__4-Pad41_3)*%
X146465000Y-134940000D03*
%TO.P,U2,41_4,GND__5*%
%TO.N,unconnected-(U2-GND__5-Pad41_4)*%
X149265000Y-133540000D03*
%TO.P,U2,41_5,GND__6*%
%TO.N,unconnected-(U2-GND__6-Pad41_5)*%
X147865000Y-133540000D03*
%TO.P,U2,41_6,GND__7*%
%TO.N,unconnected-(U2-GND__7-Pad41_6)*%
X146465000Y-133540000D03*
%TO.P,U2,41_7,GND__8*%
%TO.N,unconnected-(U2-GND__8-Pad41_7)*%
X149265000Y-132140000D03*
%TO.P,U2,41_8,GND__9*%
%TO.N,unconnected-(U2-GND__9-Pad41_8)*%
X147865000Y-132140000D03*
%TO.P,U2,41_9,GND__10*%
%TO.N,unconnected-(U2-GND__10-Pad41_9)*%
X146465000Y-132140000D03*
D29*
%TO.P,U2,41_10*%
%TO.N,N/C*%
X148565000Y-134940000D03*
%TO.P,U2,41_11*%
X147165000Y-134940000D03*
%TO.P,U2,41_12*%
X149265000Y-134240000D03*
%TO.P,U2,41_13*%
X147865000Y-134240000D03*
%TO.P,U2,41_14*%
X146465000Y-134240000D03*
%TO.P,U2,41_15*%
X148565000Y-133540000D03*
%TO.P,U2,41_16*%
X147165000Y-133540000D03*
%TO.P,U2,41_17*%
X149265000Y-132840000D03*
%TO.P,U2,41_18*%
X147865000Y-132840000D03*
%TO.P,U2,41_19*%
X146465000Y-132840000D03*
%TO.P,U2,41_20*%
X148565000Y-132140000D03*
%TO.P,U2,41_21*%
X147165000Y-132140000D03*
%TD*%
M02*
