M48
; DRILL file {KiCad 9.0.2} date 2025-11-06T19:37:58+1300
; FORMAT={-:-/ absolute / inch / decimal}
; #@! TF.CreationDate,2025-11-06T19:37:58+13:00
; #@! TF.GenerationSoftware,Kicad,Pcbnew,9.0.2
; #@! TF.FileFunction,Plated,1,4,PTH
FMAT,2
INCH
; #@! TA.AperFunction,Plated,PTH,ComponentDrill
T1C0.0079
; #@! TA.AperFunction,Plated,PTH,ComponentDrill
T2C0.0236
; #@! TA.AperFunction,Plated,PTH,ComponentDrill
T3C0.1063
%
G90
G05
T1
X3.2028Y-3.0909
X3.2028Y-3.1461
X3.2303Y-3.0634
X3.2303Y-3.1185
X3.2303Y-3.1736
X3.2579Y-3.0909
X3.2579Y-3.1461
X3.2854Y-3.0634
X3.2854Y-3.1185
X3.2854Y-3.1736
X3.313Y-3.0909
X3.313Y-3.1461
T3
X3.2402Y-2.185
X3.5236Y-2.185
T2
G00X2.1791Y-3.0228
M15
G01X2.1791Y-3.0661
M16
G05
G00X2.1791Y-3.1929
M15
G01X2.1791Y-3.2244
M16
G05
G00X2.5197Y-3.0228
M15
G01X2.5197Y-3.0661
M16
G05
G00X2.5197Y-3.1929
M15
G01X2.5197Y-3.2244
M16
G05
G00X3.1161Y-1.9272
M15
G01X3.1161Y-1.9705
M16
G05
G00X3.6476Y-1.9272
M15
G01X3.6476Y-1.9705
M16
G05
M30
