%TF.GenerationSoftware,KiCad,Pcbnew,9.0.2*%
%TF.CreationDate,2025-11-06T19:37:58+13:00*%
%TF.ProjectId,Rob_Dev_Board,526f625f-4465-4765-9f42-6f6172642e6b,rev?*%
%TF.SameCoordinates,Original*%
%TF.FileFunction,Legend,Top*%
%TF.FilePolarity,Positive*%
%FSLAX46Y46*%
G04 Gerber Fmt 4.6, Leading zero omitted, Abs format (unit mm)*
G04 Created by KiCad (PCBNEW 9.0.2) date 2025-11-06 19:37:58*
%MOMM*%
%LPD*%
G01*
G04 APERTURE LIST*
G04 Aperture macros list*
%AMRoundRect*
0 Rectangle with rounded corners*
0 $1 Rounding radius*
0 $2 $3 $4 $5 $6 $7 $8 $9 X,Y pos of 4 corners*
0 Add a 4 corners polygon primitive as box body*
4,1,4,$2,$3,$4,$5,$6,$7,$8,$9,$2,$3,0*
0 Add four circle primitives for the rounded corners*
1,1,$1+$1,$2,$3*
1,1,$1+$1,$4,$5*
1,1,$1+$1,$6,$7*
1,1,$1+$1,$8,$9*
0 Add four rect primitives between the rounded corners*
20,1,$1+$1,$2,$3,$4,$5,0*
20,1,$1+$1,$4,$5,$6,$7,0*
20,1,$1+$1,$6,$7,$8,$9,0*
20,1,$1+$1,$8,$9,$2,$3,0*%
G04 Aperture macros list end*
%ADD10C,0.150000*%
%ADD11C,0.250000*%
%ADD12C,0.127000*%
%ADD13C,0.200000*%
%ADD14C,0.152400*%
%ADD15C,0.000000*%
%ADD16C,0.010000*%
%ADD17R,0.650001X0.249999*%
%ADD18R,0.249999X0.650001*%
%ADD19C,3.200000*%
%ADD20RoundRect,0.102000X-0.395000X-0.140000X0.395000X-0.140000X0.395000X0.140000X-0.395000X0.140000X0*%
%ADD21RoundRect,0.102000X-0.140000X-0.395000X0.140000X-0.395000X0.140000X0.395000X-0.140000X0.395000X0*%
%ADD22C,0.600000*%
%ADD23O,1.104000X2.204000*%
%ADD24O,1.104000X1.904000*%
%ADD25RoundRect,0.102000X-1.858000X-1.858000X1.858000X-1.858000X1.858000X1.858000X-1.858000X1.858000X0*%
%ADD26C,3.920000*%
%ADD27O,1.404000X2.604000*%
%ADD28RoundRect,0.102000X-0.736600X-0.177800X0.736600X-0.177800X0.736600X0.177800X-0.736600X0.177800X0*%
%ADD29RoundRect,0.102000X-0.750000X-0.450000X0.750000X-0.450000X0.750000X0.450000X-0.750000X0.450000X0*%
%ADD30RoundRect,0.102000X-0.450000X-0.750000X0.450000X-0.750000X0.450000X0.750000X-0.450000X0.750000X0*%
%ADD31RoundRect,0.102000X-0.450000X-0.450000X0.450000X-0.450000X0.450000X0.450000X-0.450000X0.450000X0*%
G04 APERTURE END LIST*
D10*
X102738095Y-71129820D02*
X102738095Y-71939343D01*
X102738095Y-71939343D02*
X102785714Y-72034581D01*
X102785714Y-72034581D02*
X102833333Y-72082201D01*
X102833333Y-72082201D02*
X102928571Y-72129820D01*
X102928571Y-72129820D02*
X103119047Y-72129820D01*
X103119047Y-72129820D02*
X103214285Y-72082201D01*
X103214285Y-72082201D02*
X103261904Y-72034581D01*
X103261904Y-72034581D02*
X103309523Y-71939343D01*
X103309523Y-71939343D02*
X103309523Y-71129820D01*
X103690476Y-71129820D02*
X104309523Y-71129820D01*
X104309523Y-71129820D02*
X103976190Y-71510772D01*
X103976190Y-71510772D02*
X104119047Y-71510772D01*
X104119047Y-71510772D02*
X104214285Y-71558391D01*
X104214285Y-71558391D02*
X104261904Y-71606010D01*
X104261904Y-71606010D02*
X104309523Y-71701248D01*
X104309523Y-71701248D02*
X104309523Y-71939343D01*
X104309523Y-71939343D02*
X104261904Y-72034581D01*
X104261904Y-72034581D02*
X104214285Y-72082201D01*
X104214285Y-72082201D02*
X104119047Y-72129820D01*
X104119047Y-72129820D02*
X103833333Y-72129820D01*
X103833333Y-72129820D02*
X103738095Y-72082201D01*
X103738095Y-72082201D02*
X103690476Y-72034581D01*
X95742533Y-67380020D02*
X95742533Y-66380020D01*
X95742533Y-66380020D02*
X95980628Y-66380020D01*
X95980628Y-66380020D02*
X96123485Y-66427639D01*
X96123485Y-66427639D02*
X96218723Y-66522877D01*
X96218723Y-66522877D02*
X96266342Y-66618115D01*
X96266342Y-66618115D02*
X96313961Y-66808591D01*
X96313961Y-66808591D02*
X96313961Y-66951448D01*
X96313961Y-66951448D02*
X96266342Y-67141924D01*
X96266342Y-67141924D02*
X96218723Y-67237162D01*
X96218723Y-67237162D02*
X96123485Y-67332401D01*
X96123485Y-67332401D02*
X95980628Y-67380020D01*
X95980628Y-67380020D02*
X95742533Y-67380020D01*
X97123485Y-67332401D02*
X97028247Y-67380020D01*
X97028247Y-67380020D02*
X96837771Y-67380020D01*
X96837771Y-67380020D02*
X96742533Y-67332401D01*
X96742533Y-67332401D02*
X96694914Y-67237162D01*
X96694914Y-67237162D02*
X96694914Y-66856210D01*
X96694914Y-66856210D02*
X96742533Y-66760972D01*
X96742533Y-66760972D02*
X96837771Y-66713353D01*
X96837771Y-66713353D02*
X97028247Y-66713353D01*
X97028247Y-66713353D02*
X97123485Y-66760972D01*
X97123485Y-66760972D02*
X97171104Y-66856210D01*
X97171104Y-66856210D02*
X97171104Y-66951448D01*
X97171104Y-66951448D02*
X96694914Y-67046686D01*
X97552057Y-67332401D02*
X97647295Y-67380020D01*
X97647295Y-67380020D02*
X97837771Y-67380020D01*
X97837771Y-67380020D02*
X97933009Y-67332401D01*
X97933009Y-67332401D02*
X97980628Y-67237162D01*
X97980628Y-67237162D02*
X97980628Y-67189543D01*
X97980628Y-67189543D02*
X97933009Y-67094305D01*
X97933009Y-67094305D02*
X97837771Y-67046686D01*
X97837771Y-67046686D02*
X97694914Y-67046686D01*
X97694914Y-67046686D02*
X97599676Y-66999067D01*
X97599676Y-66999067D02*
X97552057Y-66903829D01*
X97552057Y-66903829D02*
X97552057Y-66856210D01*
X97552057Y-66856210D02*
X97599676Y-66760972D01*
X97599676Y-66760972D02*
X97694914Y-66713353D01*
X97694914Y-66713353D02*
X97837771Y-66713353D01*
X97837771Y-66713353D02*
X97933009Y-66760972D01*
X98409200Y-67380020D02*
X98409200Y-66713353D01*
X98409200Y-66380020D02*
X98361581Y-66427639D01*
X98361581Y-66427639D02*
X98409200Y-66475258D01*
X98409200Y-66475258D02*
X98456819Y-66427639D01*
X98456819Y-66427639D02*
X98409200Y-66380020D01*
X98409200Y-66380020D02*
X98409200Y-66475258D01*
X99313961Y-66713353D02*
X99313961Y-67522877D01*
X99313961Y-67522877D02*
X99266342Y-67618115D01*
X99266342Y-67618115D02*
X99218723Y-67665734D01*
X99218723Y-67665734D02*
X99123485Y-67713353D01*
X99123485Y-67713353D02*
X98980628Y-67713353D01*
X98980628Y-67713353D02*
X98885390Y-67665734D01*
X99313961Y-67332401D02*
X99218723Y-67380020D01*
X99218723Y-67380020D02*
X99028247Y-67380020D01*
X99028247Y-67380020D02*
X98933009Y-67332401D01*
X98933009Y-67332401D02*
X98885390Y-67284781D01*
X98885390Y-67284781D02*
X98837771Y-67189543D01*
X98837771Y-67189543D02*
X98837771Y-66903829D01*
X98837771Y-66903829D02*
X98885390Y-66808591D01*
X98885390Y-66808591D02*
X98933009Y-66760972D01*
X98933009Y-66760972D02*
X99028247Y-66713353D01*
X99028247Y-66713353D02*
X99218723Y-66713353D01*
X99218723Y-66713353D02*
X99313961Y-66760972D01*
X99790152Y-66713353D02*
X99790152Y-67380020D01*
X99790152Y-66808591D02*
X99837771Y-66760972D01*
X99837771Y-66760972D02*
X99933009Y-66713353D01*
X99933009Y-66713353D02*
X100075866Y-66713353D01*
X100075866Y-66713353D02*
X100171104Y-66760972D01*
X100171104Y-66760972D02*
X100218723Y-66856210D01*
X100218723Y-66856210D02*
X100218723Y-67380020D01*
X101123485Y-67380020D02*
X101123485Y-66856210D01*
X101123485Y-66856210D02*
X101075866Y-66760972D01*
X101075866Y-66760972D02*
X100980628Y-66713353D01*
X100980628Y-66713353D02*
X100790152Y-66713353D01*
X100790152Y-66713353D02*
X100694914Y-66760972D01*
X101123485Y-67332401D02*
X101028247Y-67380020D01*
X101028247Y-67380020D02*
X100790152Y-67380020D01*
X100790152Y-67380020D02*
X100694914Y-67332401D01*
X100694914Y-67332401D02*
X100647295Y-67237162D01*
X100647295Y-67237162D02*
X100647295Y-67141924D01*
X100647295Y-67141924D02*
X100694914Y-67046686D01*
X100694914Y-67046686D02*
X100790152Y-66999067D01*
X100790152Y-66999067D02*
X101028247Y-66999067D01*
X101028247Y-66999067D02*
X101123485Y-66951448D01*
X101456819Y-66713353D02*
X101837771Y-66713353D01*
X101599676Y-66380020D02*
X101599676Y-67237162D01*
X101599676Y-67237162D02*
X101647295Y-67332401D01*
X101647295Y-67332401D02*
X101742533Y-67380020D01*
X101742533Y-67380020D02*
X101837771Y-67380020D01*
X102313962Y-67380020D02*
X102218724Y-67332401D01*
X102218724Y-67332401D02*
X102171105Y-67284781D01*
X102171105Y-67284781D02*
X102123486Y-67189543D01*
X102123486Y-67189543D02*
X102123486Y-66903829D01*
X102123486Y-66903829D02*
X102171105Y-66808591D01*
X102171105Y-66808591D02*
X102218724Y-66760972D01*
X102218724Y-66760972D02*
X102313962Y-66713353D01*
X102313962Y-66713353D02*
X102456819Y-66713353D01*
X102456819Y-66713353D02*
X102552057Y-66760972D01*
X102552057Y-66760972D02*
X102599676Y-66808591D01*
X102599676Y-66808591D02*
X102647295Y-66903829D01*
X102647295Y-66903829D02*
X102647295Y-67189543D01*
X102647295Y-67189543D02*
X102599676Y-67284781D01*
X102599676Y-67284781D02*
X102552057Y-67332401D01*
X102552057Y-67332401D02*
X102456819Y-67380020D01*
X102456819Y-67380020D02*
X102313962Y-67380020D01*
X103075867Y-67380020D02*
X103075867Y-66713353D01*
X103075867Y-66903829D02*
X103123486Y-66808591D01*
X103123486Y-66808591D02*
X103171105Y-66760972D01*
X103171105Y-66760972D02*
X103266343Y-66713353D01*
X103266343Y-66713353D02*
X103361581Y-66713353D01*
X103837772Y-66808591D02*
X103742534Y-66760972D01*
X103742534Y-66760972D02*
X103694915Y-66713353D01*
X103694915Y-66713353D02*
X103647296Y-66618115D01*
X103647296Y-66618115D02*
X103647296Y-66570496D01*
X103647296Y-66570496D02*
X103694915Y-66475258D01*
X103694915Y-66475258D02*
X103742534Y-66427639D01*
X103742534Y-66427639D02*
X103837772Y-66380020D01*
X103837772Y-66380020D02*
X104028248Y-66380020D01*
X104028248Y-66380020D02*
X104123486Y-66427639D01*
X104123486Y-66427639D02*
X104171105Y-66475258D01*
X104171105Y-66475258D02*
X104218724Y-66570496D01*
X104218724Y-66570496D02*
X104218724Y-66618115D01*
X104218724Y-66618115D02*
X104171105Y-66713353D01*
X104171105Y-66713353D02*
X104123486Y-66760972D01*
X104123486Y-66760972D02*
X104028248Y-66808591D01*
X104028248Y-66808591D02*
X103837772Y-66808591D01*
X103837772Y-66808591D02*
X103742534Y-66856210D01*
X103742534Y-66856210D02*
X103694915Y-66903829D01*
X103694915Y-66903829D02*
X103647296Y-66999067D01*
X103647296Y-66999067D02*
X103647296Y-67189543D01*
X103647296Y-67189543D02*
X103694915Y-67284781D01*
X103694915Y-67284781D02*
X103742534Y-67332401D01*
X103742534Y-67332401D02*
X103837772Y-67380020D01*
X103837772Y-67380020D02*
X104028248Y-67380020D01*
X104028248Y-67380020D02*
X104123486Y-67332401D01*
X104123486Y-67332401D02*
X104171105Y-67284781D01*
X104171105Y-67284781D02*
X104218724Y-67189543D01*
X104218724Y-67189543D02*
X104218724Y-66999067D01*
X104218724Y-66999067D02*
X104171105Y-66903829D01*
X104171105Y-66903829D02*
X104123486Y-66856210D01*
X104123486Y-66856210D02*
X104028248Y-66808591D01*
X104837772Y-66380020D02*
X104933010Y-66380020D01*
X104933010Y-66380020D02*
X105028248Y-66427639D01*
X105028248Y-66427639D02*
X105075867Y-66475258D01*
X105075867Y-66475258D02*
X105123486Y-66570496D01*
X105123486Y-66570496D02*
X105171105Y-66760972D01*
X105171105Y-66760972D02*
X105171105Y-66999067D01*
X105171105Y-66999067D02*
X105123486Y-67189543D01*
X105123486Y-67189543D02*
X105075867Y-67284781D01*
X105075867Y-67284781D02*
X105028248Y-67332401D01*
X105028248Y-67332401D02*
X104933010Y-67380020D01*
X104933010Y-67380020D02*
X104837772Y-67380020D01*
X104837772Y-67380020D02*
X104742534Y-67332401D01*
X104742534Y-67332401D02*
X104694915Y-67284781D01*
X104694915Y-67284781D02*
X104647296Y-67189543D01*
X104647296Y-67189543D02*
X104599677Y-66999067D01*
X104599677Y-66999067D02*
X104599677Y-66760972D01*
X104599677Y-66760972D02*
X104647296Y-66570496D01*
X104647296Y-66570496D02*
X104694915Y-66475258D01*
X104694915Y-66475258D02*
X104742534Y-66427639D01*
X104742534Y-66427639D02*
X104837772Y-66380020D01*
X106123486Y-67380020D02*
X105552058Y-67380020D01*
X105837772Y-67380020D02*
X105837772Y-66380020D01*
X105837772Y-66380020D02*
X105742534Y-66522877D01*
X105742534Y-66522877D02*
X105647296Y-66618115D01*
X105647296Y-66618115D02*
X105552058Y-66665734D01*
X53738095Y-36954819D02*
X53738095Y-35954819D01*
X53738095Y-36431009D02*
X54309523Y-36431009D01*
X54309523Y-36954819D02*
X54309523Y-35954819D01*
X55309523Y-36954819D02*
X54738095Y-36954819D01*
X55023809Y-36954819D02*
X55023809Y-35954819D01*
X55023809Y-35954819D02*
X54928571Y-36097676D01*
X54928571Y-36097676D02*
X54833333Y-36192914D01*
X54833333Y-36192914D02*
X54738095Y-36240533D01*
X102738095Y-83654820D02*
X102738095Y-84464343D01*
X102738095Y-84464343D02*
X102785714Y-84559581D01*
X102785714Y-84559581D02*
X102833333Y-84607201D01*
X102833333Y-84607201D02*
X102928571Y-84654820D01*
X102928571Y-84654820D02*
X103119047Y-84654820D01*
X103119047Y-84654820D02*
X103214285Y-84607201D01*
X103214285Y-84607201D02*
X103261904Y-84559581D01*
X103261904Y-84559581D02*
X103309523Y-84464343D01*
X103309523Y-84464343D02*
X103309523Y-83654820D01*
X104309523Y-84654820D02*
X103738095Y-84654820D01*
X104023809Y-84654820D02*
X104023809Y-83654820D01*
X104023809Y-83654820D02*
X103928571Y-83797677D01*
X103928571Y-83797677D02*
X103833333Y-83892915D01*
X103833333Y-83892915D02*
X103738095Y-83940534D01*
X95742533Y-79905020D02*
X95742533Y-78905020D01*
X95742533Y-78905020D02*
X95980628Y-78905020D01*
X95980628Y-78905020D02*
X96123485Y-78952639D01*
X96123485Y-78952639D02*
X96218723Y-79047877D01*
X96218723Y-79047877D02*
X96266342Y-79143115D01*
X96266342Y-79143115D02*
X96313961Y-79333591D01*
X96313961Y-79333591D02*
X96313961Y-79476448D01*
X96313961Y-79476448D02*
X96266342Y-79666924D01*
X96266342Y-79666924D02*
X96218723Y-79762162D01*
X96218723Y-79762162D02*
X96123485Y-79857401D01*
X96123485Y-79857401D02*
X95980628Y-79905020D01*
X95980628Y-79905020D02*
X95742533Y-79905020D01*
X97123485Y-79857401D02*
X97028247Y-79905020D01*
X97028247Y-79905020D02*
X96837771Y-79905020D01*
X96837771Y-79905020D02*
X96742533Y-79857401D01*
X96742533Y-79857401D02*
X96694914Y-79762162D01*
X96694914Y-79762162D02*
X96694914Y-79381210D01*
X96694914Y-79381210D02*
X96742533Y-79285972D01*
X96742533Y-79285972D02*
X96837771Y-79238353D01*
X96837771Y-79238353D02*
X97028247Y-79238353D01*
X97028247Y-79238353D02*
X97123485Y-79285972D01*
X97123485Y-79285972D02*
X97171104Y-79381210D01*
X97171104Y-79381210D02*
X97171104Y-79476448D01*
X97171104Y-79476448D02*
X96694914Y-79571686D01*
X97552057Y-79857401D02*
X97647295Y-79905020D01*
X97647295Y-79905020D02*
X97837771Y-79905020D01*
X97837771Y-79905020D02*
X97933009Y-79857401D01*
X97933009Y-79857401D02*
X97980628Y-79762162D01*
X97980628Y-79762162D02*
X97980628Y-79714543D01*
X97980628Y-79714543D02*
X97933009Y-79619305D01*
X97933009Y-79619305D02*
X97837771Y-79571686D01*
X97837771Y-79571686D02*
X97694914Y-79571686D01*
X97694914Y-79571686D02*
X97599676Y-79524067D01*
X97599676Y-79524067D02*
X97552057Y-79428829D01*
X97552057Y-79428829D02*
X97552057Y-79381210D01*
X97552057Y-79381210D02*
X97599676Y-79285972D01*
X97599676Y-79285972D02*
X97694914Y-79238353D01*
X97694914Y-79238353D02*
X97837771Y-79238353D01*
X97837771Y-79238353D02*
X97933009Y-79285972D01*
X98409200Y-79905020D02*
X98409200Y-79238353D01*
X98409200Y-78905020D02*
X98361581Y-78952639D01*
X98361581Y-78952639D02*
X98409200Y-79000258D01*
X98409200Y-79000258D02*
X98456819Y-78952639D01*
X98456819Y-78952639D02*
X98409200Y-78905020D01*
X98409200Y-78905020D02*
X98409200Y-79000258D01*
X99313961Y-79238353D02*
X99313961Y-80047877D01*
X99313961Y-80047877D02*
X99266342Y-80143115D01*
X99266342Y-80143115D02*
X99218723Y-80190734D01*
X99218723Y-80190734D02*
X99123485Y-80238353D01*
X99123485Y-80238353D02*
X98980628Y-80238353D01*
X98980628Y-80238353D02*
X98885390Y-80190734D01*
X99313961Y-79857401D02*
X99218723Y-79905020D01*
X99218723Y-79905020D02*
X99028247Y-79905020D01*
X99028247Y-79905020D02*
X98933009Y-79857401D01*
X98933009Y-79857401D02*
X98885390Y-79809781D01*
X98885390Y-79809781D02*
X98837771Y-79714543D01*
X98837771Y-79714543D02*
X98837771Y-79428829D01*
X98837771Y-79428829D02*
X98885390Y-79333591D01*
X98885390Y-79333591D02*
X98933009Y-79285972D01*
X98933009Y-79285972D02*
X99028247Y-79238353D01*
X99028247Y-79238353D02*
X99218723Y-79238353D01*
X99218723Y-79238353D02*
X99313961Y-79285972D01*
X99790152Y-79238353D02*
X99790152Y-79905020D01*
X99790152Y-79333591D02*
X99837771Y-79285972D01*
X99837771Y-79285972D02*
X99933009Y-79238353D01*
X99933009Y-79238353D02*
X100075866Y-79238353D01*
X100075866Y-79238353D02*
X100171104Y-79285972D01*
X100171104Y-79285972D02*
X100218723Y-79381210D01*
X100218723Y-79381210D02*
X100218723Y-79905020D01*
X101123485Y-79905020D02*
X101123485Y-79381210D01*
X101123485Y-79381210D02*
X101075866Y-79285972D01*
X101075866Y-79285972D02*
X100980628Y-79238353D01*
X100980628Y-79238353D02*
X100790152Y-79238353D01*
X100790152Y-79238353D02*
X100694914Y-79285972D01*
X101123485Y-79857401D02*
X101028247Y-79905020D01*
X101028247Y-79905020D02*
X100790152Y-79905020D01*
X100790152Y-79905020D02*
X100694914Y-79857401D01*
X100694914Y-79857401D02*
X100647295Y-79762162D01*
X100647295Y-79762162D02*
X100647295Y-79666924D01*
X100647295Y-79666924D02*
X100694914Y-79571686D01*
X100694914Y-79571686D02*
X100790152Y-79524067D01*
X100790152Y-79524067D02*
X101028247Y-79524067D01*
X101028247Y-79524067D02*
X101123485Y-79476448D01*
X101456819Y-79238353D02*
X101837771Y-79238353D01*
X101599676Y-78905020D02*
X101599676Y-79762162D01*
X101599676Y-79762162D02*
X101647295Y-79857401D01*
X101647295Y-79857401D02*
X101742533Y-79905020D01*
X101742533Y-79905020D02*
X101837771Y-79905020D01*
X102313962Y-79905020D02*
X102218724Y-79857401D01*
X102218724Y-79857401D02*
X102171105Y-79809781D01*
X102171105Y-79809781D02*
X102123486Y-79714543D01*
X102123486Y-79714543D02*
X102123486Y-79428829D01*
X102123486Y-79428829D02*
X102171105Y-79333591D01*
X102171105Y-79333591D02*
X102218724Y-79285972D01*
X102218724Y-79285972D02*
X102313962Y-79238353D01*
X102313962Y-79238353D02*
X102456819Y-79238353D01*
X102456819Y-79238353D02*
X102552057Y-79285972D01*
X102552057Y-79285972D02*
X102599676Y-79333591D01*
X102599676Y-79333591D02*
X102647295Y-79428829D01*
X102647295Y-79428829D02*
X102647295Y-79714543D01*
X102647295Y-79714543D02*
X102599676Y-79809781D01*
X102599676Y-79809781D02*
X102552057Y-79857401D01*
X102552057Y-79857401D02*
X102456819Y-79905020D01*
X102456819Y-79905020D02*
X102313962Y-79905020D01*
X103075867Y-79905020D02*
X103075867Y-79238353D01*
X103075867Y-79428829D02*
X103123486Y-79333591D01*
X103123486Y-79333591D02*
X103171105Y-79285972D01*
X103171105Y-79285972D02*
X103266343Y-79238353D01*
X103266343Y-79238353D02*
X103361581Y-79238353D01*
X103837772Y-79333591D02*
X103742534Y-79285972D01*
X103742534Y-79285972D02*
X103694915Y-79238353D01*
X103694915Y-79238353D02*
X103647296Y-79143115D01*
X103647296Y-79143115D02*
X103647296Y-79095496D01*
X103647296Y-79095496D02*
X103694915Y-79000258D01*
X103694915Y-79000258D02*
X103742534Y-78952639D01*
X103742534Y-78952639D02*
X103837772Y-78905020D01*
X103837772Y-78905020D02*
X104028248Y-78905020D01*
X104028248Y-78905020D02*
X104123486Y-78952639D01*
X104123486Y-78952639D02*
X104171105Y-79000258D01*
X104171105Y-79000258D02*
X104218724Y-79095496D01*
X104218724Y-79095496D02*
X104218724Y-79143115D01*
X104218724Y-79143115D02*
X104171105Y-79238353D01*
X104171105Y-79238353D02*
X104123486Y-79285972D01*
X104123486Y-79285972D02*
X104028248Y-79333591D01*
X104028248Y-79333591D02*
X103837772Y-79333591D01*
X103837772Y-79333591D02*
X103742534Y-79381210D01*
X103742534Y-79381210D02*
X103694915Y-79428829D01*
X103694915Y-79428829D02*
X103647296Y-79524067D01*
X103647296Y-79524067D02*
X103647296Y-79714543D01*
X103647296Y-79714543D02*
X103694915Y-79809781D01*
X103694915Y-79809781D02*
X103742534Y-79857401D01*
X103742534Y-79857401D02*
X103837772Y-79905020D01*
X103837772Y-79905020D02*
X104028248Y-79905020D01*
X104028248Y-79905020D02*
X104123486Y-79857401D01*
X104123486Y-79857401D02*
X104171105Y-79809781D01*
X104171105Y-79809781D02*
X104218724Y-79714543D01*
X104218724Y-79714543D02*
X104218724Y-79524067D01*
X104218724Y-79524067D02*
X104171105Y-79428829D01*
X104171105Y-79428829D02*
X104123486Y-79381210D01*
X104123486Y-79381210D02*
X104028248Y-79333591D01*
X104837772Y-78905020D02*
X104933010Y-78905020D01*
X104933010Y-78905020D02*
X105028248Y-78952639D01*
X105028248Y-78952639D02*
X105075867Y-79000258D01*
X105075867Y-79000258D02*
X105123486Y-79095496D01*
X105123486Y-79095496D02*
X105171105Y-79285972D01*
X105171105Y-79285972D02*
X105171105Y-79524067D01*
X105171105Y-79524067D02*
X105123486Y-79714543D01*
X105123486Y-79714543D02*
X105075867Y-79809781D01*
X105075867Y-79809781D02*
X105028248Y-79857401D01*
X105028248Y-79857401D02*
X104933010Y-79905020D01*
X104933010Y-79905020D02*
X104837772Y-79905020D01*
X104837772Y-79905020D02*
X104742534Y-79857401D01*
X104742534Y-79857401D02*
X104694915Y-79809781D01*
X104694915Y-79809781D02*
X104647296Y-79714543D01*
X104647296Y-79714543D02*
X104599677Y-79524067D01*
X104599677Y-79524067D02*
X104599677Y-79285972D01*
X104599677Y-79285972D02*
X104647296Y-79095496D01*
X104647296Y-79095496D02*
X104694915Y-79000258D01*
X104694915Y-79000258D02*
X104742534Y-78952639D01*
X104742534Y-78952639D02*
X104837772Y-78905020D01*
X106123486Y-79905020D02*
X105552058Y-79905020D01*
X105837772Y-79905020D02*
X105837772Y-78905020D01*
X105837772Y-78905020D02*
X105742534Y-79047877D01*
X105742534Y-79047877D02*
X105647296Y-79143115D01*
X105647296Y-79143115D02*
X105552058Y-79190734D01*
X68538095Y-57212319D02*
X68538095Y-58021842D01*
X68538095Y-58021842D02*
X68585714Y-58117080D01*
X68585714Y-58117080D02*
X68633333Y-58164700D01*
X68633333Y-58164700D02*
X68728571Y-58212319D01*
X68728571Y-58212319D02*
X68919047Y-58212319D01*
X68919047Y-58212319D02*
X69014285Y-58164700D01*
X69014285Y-58164700D02*
X69061904Y-58117080D01*
X69061904Y-58117080D02*
X69109523Y-58021842D01*
X69109523Y-58021842D02*
X69109523Y-57212319D01*
X70061904Y-57212319D02*
X69585714Y-57212319D01*
X69585714Y-57212319D02*
X69538095Y-57688509D01*
X69538095Y-57688509D02*
X69585714Y-57640890D01*
X69585714Y-57640890D02*
X69680952Y-57593271D01*
X69680952Y-57593271D02*
X69919047Y-57593271D01*
X69919047Y-57593271D02*
X70014285Y-57640890D01*
X70014285Y-57640890D02*
X70061904Y-57688509D01*
X70061904Y-57688509D02*
X70109523Y-57783747D01*
X70109523Y-57783747D02*
X70109523Y-58021842D01*
X70109523Y-58021842D02*
X70061904Y-58117080D01*
X70061904Y-58117080D02*
X70014285Y-58164700D01*
X70014285Y-58164700D02*
X69919047Y-58212319D01*
X69919047Y-58212319D02*
X69680952Y-58212319D01*
X69680952Y-58212319D02*
X69585714Y-58164700D01*
X69585714Y-58164700D02*
X69538095Y-58117080D01*
X53738095Y-44904819D02*
X53738095Y-43904819D01*
X53738095Y-44381009D02*
X54309523Y-44381009D01*
X54309523Y-44904819D02*
X54309523Y-43904819D01*
X54738095Y-44000057D02*
X54785714Y-43952438D01*
X54785714Y-43952438D02*
X54880952Y-43904819D01*
X54880952Y-43904819D02*
X55119047Y-43904819D01*
X55119047Y-43904819D02*
X55214285Y-43952438D01*
X55214285Y-43952438D02*
X55261904Y-44000057D01*
X55261904Y-44000057D02*
X55309523Y-44095295D01*
X55309523Y-44095295D02*
X55309523Y-44190533D01*
X55309523Y-44190533D02*
X55261904Y-44333390D01*
X55261904Y-44333390D02*
X54690476Y-44904819D01*
X54690476Y-44904819D02*
X55309523Y-44904819D01*
X57491666Y-73749819D02*
X57491666Y-74464104D01*
X57491666Y-74464104D02*
X57444047Y-74606961D01*
X57444047Y-74606961D02*
X57348809Y-74702200D01*
X57348809Y-74702200D02*
X57205952Y-74749819D01*
X57205952Y-74749819D02*
X57110714Y-74749819D01*
X58491666Y-74749819D02*
X57920238Y-74749819D01*
X58205952Y-74749819D02*
X58205952Y-73749819D01*
X58205952Y-73749819D02*
X58110714Y-73892676D01*
X58110714Y-73892676D02*
X58015476Y-73987914D01*
X58015476Y-73987914D02*
X57920238Y-74035533D01*
X53738095Y-60804819D02*
X53738095Y-59804819D01*
X53738095Y-60281009D02*
X54309523Y-60281009D01*
X54309523Y-60804819D02*
X54309523Y-59804819D01*
X55214285Y-60138152D02*
X55214285Y-60804819D01*
X54976190Y-59757200D02*
X54738095Y-60471485D01*
X54738095Y-60471485D02*
X55357142Y-60471485D01*
X80742919Y-35439603D02*
X80742919Y-36154203D01*
X80742919Y-36154203D02*
X80695279Y-36297123D01*
X80695279Y-36297123D02*
X80599999Y-36392404D01*
X80599999Y-36392404D02*
X80457079Y-36440044D01*
X80457079Y-36440044D02*
X80361799Y-36440044D01*
X81171680Y-35534883D02*
X81219320Y-35487243D01*
X81219320Y-35487243D02*
X81314600Y-35439603D01*
X81314600Y-35439603D02*
X81552800Y-35439603D01*
X81552800Y-35439603D02*
X81648080Y-35487243D01*
X81648080Y-35487243D02*
X81695720Y-35534883D01*
X81695720Y-35534883D02*
X81743360Y-35630163D01*
X81743360Y-35630163D02*
X81743360Y-35725443D01*
X81743360Y-35725443D02*
X81695720Y-35868363D01*
X81695720Y-35868363D02*
X81124040Y-36440044D01*
X81124040Y-36440044D02*
X81743360Y-36440044D01*
X53738095Y-52854819D02*
X53738095Y-51854819D01*
X53738095Y-52331009D02*
X54309523Y-52331009D01*
X54309523Y-52854819D02*
X54309523Y-51854819D01*
X54690476Y-51854819D02*
X55309523Y-51854819D01*
X55309523Y-51854819D02*
X54976190Y-52235771D01*
X54976190Y-52235771D02*
X55119047Y-52235771D01*
X55119047Y-52235771D02*
X55214285Y-52283390D01*
X55214285Y-52283390D02*
X55261904Y-52331009D01*
X55261904Y-52331009D02*
X55309523Y-52426247D01*
X55309523Y-52426247D02*
X55309523Y-52664342D01*
X55309523Y-52664342D02*
X55261904Y-52759580D01*
X55261904Y-52759580D02*
X55214285Y-52807200D01*
X55214285Y-52807200D02*
X55119047Y-52854819D01*
X55119047Y-52854819D02*
X54833333Y-52854819D01*
X54833333Y-52854819D02*
X54738095Y-52807200D01*
X54738095Y-52807200D02*
X54690476Y-52759580D01*
X46082936Y-74625284D02*
X46082936Y-75955134D01*
X46082936Y-75955134D02*
X46161162Y-76111587D01*
X46161162Y-76111587D02*
X46239389Y-76189814D01*
X46239389Y-76189814D02*
X46395842Y-76268040D01*
X46395842Y-76268040D02*
X46708748Y-76268040D01*
X46708748Y-76268040D02*
X46865201Y-76189814D01*
X46865201Y-76189814D02*
X46943427Y-76111587D01*
X46943427Y-76111587D02*
X47021654Y-75955134D01*
X47021654Y-75955134D02*
X47021654Y-74625284D01*
X48507956Y-75172869D02*
X48507956Y-76268040D01*
X48116824Y-74547058D02*
X47725691Y-75720455D01*
X47725691Y-75720455D02*
X48742636Y-75720455D01*
X76913095Y-68469819D02*
X76913095Y-69279342D01*
X76913095Y-69279342D02*
X76960714Y-69374580D01*
X76960714Y-69374580D02*
X77008333Y-69422200D01*
X77008333Y-69422200D02*
X77103571Y-69469819D01*
X77103571Y-69469819D02*
X77294047Y-69469819D01*
X77294047Y-69469819D02*
X77389285Y-69422200D01*
X77389285Y-69422200D02*
X77436904Y-69374580D01*
X77436904Y-69374580D02*
X77484523Y-69279342D01*
X77484523Y-69279342D02*
X77484523Y-68469819D01*
X77913095Y-68565057D02*
X77960714Y-68517438D01*
X77960714Y-68517438D02*
X78055952Y-68469819D01*
X78055952Y-68469819D02*
X78294047Y-68469819D01*
X78294047Y-68469819D02*
X78389285Y-68517438D01*
X78389285Y-68517438D02*
X78436904Y-68565057D01*
X78436904Y-68565057D02*
X78484523Y-68660295D01*
X78484523Y-68660295D02*
X78484523Y-68755533D01*
X78484523Y-68755533D02*
X78436904Y-68898390D01*
X78436904Y-68898390D02*
X77865476Y-69469819D01*
X77865476Y-69469819D02*
X78484523Y-69469819D01*
%TO.C,U3*%
X101700001Y-68275000D02*
X105299999Y-68275000D01*
X101700001Y-75075002D02*
X105299999Y-75075002D01*
D11*
X101025001Y-69300002D02*
G75*
G02*
X100774999Y-69300002I-125001J0D01*
G01*
X100774999Y-69300002D02*
G75*
G02*
X101025001Y-69300002I125001J0D01*
G01*
D10*
%TO.C,U1*%
X101700001Y-80800000D02*
X105299999Y-80800000D01*
X101700001Y-87600002D02*
X105299999Y-87600002D01*
D11*
X101025001Y-81825002D02*
G75*
G02*
X100774999Y-81825002I-125001J0D01*
G01*
X100774999Y-81825002D02*
G75*
G02*
X101025001Y-81825002I125001J0D01*
G01*
D12*
%TO.C,U5*%
X66030000Y-59250000D02*
X66030000Y-59545000D01*
X66030000Y-59250000D02*
X66325000Y-59250000D01*
X66030000Y-63250000D02*
X66030000Y-62955000D01*
X66030000Y-63250000D02*
X66325000Y-63250000D01*
X70030000Y-59250000D02*
X69735000Y-59250000D01*
X70030000Y-59250000D02*
X70030000Y-59545000D01*
X70030000Y-63250000D02*
X69735000Y-63250000D01*
X70030000Y-63250000D02*
X70030000Y-62955000D01*
D13*
X65130000Y-60000000D02*
G75*
G02*
X64930000Y-60000000I-100000J0D01*
G01*
X64930000Y-60000000D02*
G75*
G02*
X65130000Y-60000000I100000J0D01*
G01*
D12*
%TO.C,J1*%
X55205000Y-78650000D02*
X55205000Y-80330000D01*
X55205000Y-84100000D02*
X55205000Y-82670000D01*
X55205000Y-84100000D02*
X64145000Y-84100000D01*
X64145000Y-78650000D02*
X64145000Y-80330000D01*
X64145000Y-84100000D02*
X64145000Y-82670000D01*
D13*
X56575000Y-75500000D02*
G75*
G02*
X56375000Y-75500000I-100000J0D01*
G01*
X56375000Y-75500000D02*
G75*
G02*
X56575000Y-75500000I100000J0D01*
G01*
D12*
%TO.C,J2*%
X78150000Y-39150000D02*
X78150000Y-57350000D01*
X78150000Y-57350000D02*
X80122000Y-57350000D01*
X84478000Y-57350000D02*
X87322000Y-57350000D01*
X88440000Y-59660000D02*
X89710000Y-59660000D01*
X89710000Y-59660000D02*
X89710000Y-58390000D01*
X89710000Y-59660000D02*
X89710000Y-60930000D01*
X90980000Y-59660000D02*
X89710000Y-59660000D01*
X93650000Y-39150000D02*
X78150000Y-39150000D01*
X93650000Y-57350000D02*
X91678000Y-57350000D01*
X93650000Y-57350000D02*
X93650000Y-39150000D01*
D14*
%TO.C,U4*%
X43318400Y-77381400D02*
X43318400Y-77559200D01*
X43318400Y-87008000D02*
X43318400Y-87185800D01*
X43318400Y-87185800D02*
X47839600Y-87185800D01*
X45274200Y-77381400D02*
X43318400Y-77381400D01*
X45883800Y-77381400D02*
X45274200Y-77381400D01*
X47839600Y-77381400D02*
X45883800Y-77381400D01*
X47839600Y-77559200D02*
X47839600Y-77381400D01*
X47839600Y-87185800D02*
X47839600Y-87008000D01*
X45883800Y-77381400D02*
G75*
G02*
X45274200Y-77381400I-304800J0D01*
G01*
D12*
%TO.C,U2*%
X75250000Y-70300000D02*
X93250000Y-70300000D01*
X75250000Y-70720000D02*
X75250000Y-70300000D01*
X75250000Y-89500000D02*
X75250000Y-88770000D01*
X76495000Y-89500000D02*
X75250000Y-89500000D01*
X93250000Y-70300000D02*
X93250000Y-70720000D01*
X93250000Y-89500000D02*
X92005000Y-89500000D01*
X93250000Y-89500000D02*
X93250000Y-88770000D01*
D13*
X73850000Y-71490000D02*
G75*
G02*
X73650000Y-71490000I-100000J0D01*
G01*
X73650000Y-71490000D02*
G75*
G02*
X73850000Y-71490000I100000J0D01*
G01*
%TD*%
%LPC*%
D15*
%TO.C,U3*%
G36*
X103374999Y-71725001D02*
G01*
X103374999Y-72025000D01*
X103324999Y-72075000D01*
X101900001Y-72075000D01*
X101900001Y-72000002D01*
X101599999Y-72000002D01*
X101549999Y-71949999D01*
X101550001Y-71800002D01*
X101600001Y-71750002D01*
X101900001Y-71750002D01*
X101900001Y-71675001D01*
X103324999Y-71675001D01*
X103374999Y-71725001D01*
G37*
G36*
X103374999Y-72525002D02*
G01*
X103374999Y-72825001D01*
X103324999Y-72874999D01*
X101900001Y-72875001D01*
X101900001Y-72800000D01*
X101599999Y-72800000D01*
X101549999Y-72750000D01*
X101550001Y-72600003D01*
X101600001Y-72550003D01*
X101900001Y-72550001D01*
X101900001Y-72475002D01*
X103324999Y-72475002D01*
X103374999Y-72525002D01*
G37*
G36*
X105099999Y-72550001D02*
G01*
X105399999Y-72550003D01*
X105449999Y-72600003D01*
X105450001Y-72750000D01*
X105400001Y-72800000D01*
X105099999Y-72800000D01*
X105099999Y-72875001D01*
X103675001Y-72874999D01*
X103625001Y-72825001D01*
X103625001Y-72525002D01*
X103675001Y-72475002D01*
X105099999Y-72475002D01*
X105099999Y-72550001D01*
G37*
G36*
X105099999Y-71750002D02*
G01*
X105399999Y-71750005D01*
X105450001Y-71800005D01*
X105450001Y-71949999D01*
X105400001Y-72000002D01*
X105099999Y-72000002D01*
X105099999Y-72075000D01*
X103675001Y-72074998D01*
X103625001Y-72025000D01*
X103625001Y-71725001D01*
X103675001Y-71675001D01*
X105099999Y-71675001D01*
X105099999Y-71750002D01*
G37*
G36*
X105099999Y-70850001D02*
G01*
X105399999Y-70850001D01*
X105450001Y-70900001D01*
X105449999Y-71050001D01*
X105399999Y-71100001D01*
X105099999Y-71100001D01*
X105099999Y-71175002D01*
X101900001Y-71175002D01*
X101900001Y-71100001D01*
X101600001Y-71100001D01*
X101549999Y-71050001D01*
X101550001Y-70900001D01*
X101600001Y-70850001D01*
X101900001Y-70850001D01*
X101900001Y-70775000D01*
X105099999Y-70775000D01*
X105099999Y-70850001D01*
G37*
G36*
X105099999Y-73450001D02*
G01*
X105399999Y-73450001D01*
X105450001Y-73500001D01*
X105450001Y-73650001D01*
X105399999Y-73700001D01*
X105099999Y-73700001D01*
X105099999Y-73775002D01*
X104375000Y-73775002D01*
X104375000Y-74575000D01*
X104325000Y-74625000D01*
X104175000Y-74625000D01*
X104125000Y-74575000D01*
X104125000Y-73775002D01*
X103875001Y-73775002D01*
X103875001Y-74575000D01*
X103825001Y-74625000D01*
X103675001Y-74625000D01*
X103625001Y-74575000D01*
X103625001Y-73775002D01*
X103374999Y-73775002D01*
X103374999Y-74575000D01*
X103324999Y-74625000D01*
X103174999Y-74625000D01*
X103124999Y-74575000D01*
X103124999Y-73775002D01*
X102875000Y-73775002D01*
X102875000Y-74575000D01*
X102825000Y-74625000D01*
X102675000Y-74625000D01*
X102625000Y-74575000D01*
X102625000Y-73775002D01*
X101900001Y-73775002D01*
X101900001Y-73700001D01*
X101600001Y-73700001D01*
X101549999Y-73650001D01*
X101550001Y-73500001D01*
X101600001Y-73450001D01*
X101900001Y-73450001D01*
X101900001Y-73375000D01*
X105099999Y-73375000D01*
X105099999Y-73450001D01*
G37*
%TO.C,U1*%
G36*
X103374999Y-84250001D02*
G01*
X103374999Y-84550000D01*
X103324999Y-84600000D01*
X101900001Y-84600000D01*
X101900001Y-84525002D01*
X101599999Y-84525002D01*
X101549999Y-84474999D01*
X101550001Y-84325002D01*
X101600001Y-84275002D01*
X101900001Y-84275002D01*
X101900001Y-84200001D01*
X103324999Y-84200001D01*
X103374999Y-84250001D01*
G37*
G36*
X103374999Y-85050002D02*
G01*
X103374999Y-85350001D01*
X103324999Y-85399999D01*
X101900001Y-85400001D01*
X101900001Y-85325000D01*
X101599999Y-85325000D01*
X101549999Y-85275000D01*
X101550001Y-85125003D01*
X101600001Y-85075003D01*
X101900001Y-85075001D01*
X101900001Y-85000002D01*
X103324999Y-85000002D01*
X103374999Y-85050002D01*
G37*
G36*
X105099999Y-85075001D02*
G01*
X105399999Y-85075003D01*
X105449999Y-85125003D01*
X105450001Y-85275000D01*
X105400001Y-85325000D01*
X105099999Y-85325000D01*
X105099999Y-85400001D01*
X103675001Y-85399999D01*
X103625001Y-85350001D01*
X103625001Y-85050002D01*
X103675001Y-85000002D01*
X105099999Y-85000002D01*
X105099999Y-85075001D01*
G37*
G36*
X105099999Y-84275002D02*
G01*
X105399999Y-84275005D01*
X105450001Y-84325005D01*
X105450001Y-84474999D01*
X105400001Y-84525002D01*
X105099999Y-84525002D01*
X105099999Y-84600000D01*
X103675001Y-84599998D01*
X103625001Y-84550000D01*
X103625001Y-84250001D01*
X103675001Y-84200001D01*
X105099999Y-84200001D01*
X105099999Y-84275002D01*
G37*
G36*
X105099999Y-83375001D02*
G01*
X105399999Y-83375001D01*
X105450001Y-83425001D01*
X105449999Y-83575001D01*
X105399999Y-83625001D01*
X105099999Y-83625001D01*
X105099999Y-83700002D01*
X101900001Y-83700002D01*
X101900001Y-83625001D01*
X101600001Y-83625001D01*
X101549999Y-83575001D01*
X101550001Y-83425001D01*
X101600001Y-83375001D01*
X101900001Y-83375001D01*
X101900001Y-83300000D01*
X105099999Y-83300000D01*
X105099999Y-83375001D01*
G37*
G36*
X105099999Y-85975001D02*
G01*
X105399999Y-85975001D01*
X105450001Y-86025001D01*
X105450001Y-86175001D01*
X105399999Y-86225001D01*
X105099999Y-86225001D01*
X105099999Y-86300002D01*
X104375000Y-86300002D01*
X104375000Y-87100000D01*
X104325000Y-87150000D01*
X104175000Y-87150000D01*
X104125000Y-87100000D01*
X104125000Y-86300002D01*
X103875001Y-86300002D01*
X103875001Y-87100000D01*
X103825001Y-87150000D01*
X103675001Y-87150000D01*
X103625001Y-87100000D01*
X103625001Y-86300002D01*
X103374999Y-86300002D01*
X103374999Y-87100000D01*
X103324999Y-87150000D01*
X103174999Y-87150000D01*
X103124999Y-87100000D01*
X103124999Y-86300002D01*
X102875000Y-86300002D01*
X102875000Y-87100000D01*
X102825000Y-87150000D01*
X102675000Y-87150000D01*
X102625000Y-87100000D01*
X102625000Y-86300002D01*
X101900001Y-86300002D01*
X101900001Y-86225001D01*
X101600001Y-86225001D01*
X101549999Y-86175001D01*
X101550001Y-86025001D01*
X101600001Y-85975001D01*
X101900001Y-85975001D01*
X101900001Y-85900000D01*
X105099999Y-85900000D01*
X105099999Y-85975001D01*
G37*
D16*
%TO.C,J1*%
X56825000Y-77370000D02*
X56125000Y-77370000D01*
X56125000Y-76130000D01*
X56825000Y-76130000D01*
X56825000Y-77370000D01*
G36*
X56825000Y-77370000D02*
G01*
X56125000Y-77370000D01*
X56125000Y-76130000D01*
X56825000Y-76130000D01*
X56825000Y-77370000D01*
G37*
X57625000Y-77370000D02*
X56925000Y-77370000D01*
X56925000Y-76130000D01*
X57625000Y-76130000D01*
X57625000Y-77370000D01*
G36*
X57625000Y-77370000D02*
G01*
X56925000Y-77370000D01*
X56925000Y-76130000D01*
X57625000Y-76130000D01*
X57625000Y-77370000D01*
G37*
X58125000Y-77370000D02*
X57725000Y-77370000D01*
X57725000Y-76130000D01*
X58125000Y-76130000D01*
X58125000Y-77370000D01*
G36*
X58125000Y-77370000D02*
G01*
X57725000Y-77370000D01*
X57725000Y-76130000D01*
X58125000Y-76130000D01*
X58125000Y-77370000D01*
G37*
X58625000Y-77370000D02*
X58225000Y-77370000D01*
X58225000Y-76130000D01*
X58625000Y-76130000D01*
X58625000Y-77370000D01*
G36*
X58625000Y-77370000D02*
G01*
X58225000Y-77370000D01*
X58225000Y-76130000D01*
X58625000Y-76130000D01*
X58625000Y-77370000D01*
G37*
X59125000Y-77370000D02*
X58725000Y-77370000D01*
X58725000Y-76130000D01*
X59125000Y-76130000D01*
X59125000Y-77370000D01*
G36*
X59125000Y-77370000D02*
G01*
X58725000Y-77370000D01*
X58725000Y-76130000D01*
X59125000Y-76130000D01*
X59125000Y-77370000D01*
G37*
X59625000Y-77370000D02*
X59225000Y-77370000D01*
X59225000Y-76130000D01*
X59625000Y-76130000D01*
X59625000Y-77370000D01*
G36*
X59625000Y-77370000D02*
G01*
X59225000Y-77370000D01*
X59225000Y-76130000D01*
X59625000Y-76130000D01*
X59625000Y-77370000D01*
G37*
X60125000Y-77370000D02*
X59725000Y-77370000D01*
X59725000Y-76130000D01*
X60125000Y-76130000D01*
X60125000Y-77370000D01*
G36*
X60125000Y-77370000D02*
G01*
X59725000Y-77370000D01*
X59725000Y-76130000D01*
X60125000Y-76130000D01*
X60125000Y-77370000D01*
G37*
X60625000Y-77370000D02*
X60225000Y-77370000D01*
X60225000Y-76130000D01*
X60625000Y-76130000D01*
X60625000Y-77370000D01*
G36*
X60625000Y-77370000D02*
G01*
X60225000Y-77370000D01*
X60225000Y-76130000D01*
X60625000Y-76130000D01*
X60625000Y-77370000D01*
G37*
X61125000Y-77370000D02*
X60725000Y-77370000D01*
X60725000Y-76130000D01*
X61125000Y-76130000D01*
X61125000Y-77370000D01*
G36*
X61125000Y-77370000D02*
G01*
X60725000Y-77370000D01*
X60725000Y-76130000D01*
X61125000Y-76130000D01*
X61125000Y-77370000D01*
G37*
X61625000Y-77370000D02*
X61225000Y-77370000D01*
X61225000Y-76130000D01*
X61625000Y-76130000D01*
X61625000Y-77370000D01*
G36*
X61625000Y-77370000D02*
G01*
X61225000Y-77370000D01*
X61225000Y-76130000D01*
X61625000Y-76130000D01*
X61625000Y-77370000D01*
G37*
X62425000Y-77370000D02*
X61725000Y-77370000D01*
X61725000Y-76130000D01*
X62425000Y-76130000D01*
X62425000Y-77370000D01*
G36*
X62425000Y-77370000D02*
G01*
X61725000Y-77370000D01*
X61725000Y-76130000D01*
X62425000Y-76130000D01*
X62425000Y-77370000D01*
G37*
X63225000Y-77370000D02*
X62525000Y-77370000D01*
X62525000Y-76130000D01*
X63225000Y-76130000D01*
X63225000Y-77370000D01*
G36*
X63225000Y-77370000D02*
G01*
X62525000Y-77370000D01*
X62525000Y-76130000D01*
X63225000Y-76130000D01*
X63225000Y-77370000D01*
G37*
%TD*%
D17*
%TO.C,U3*%
X101874999Y-69300002D03*
X101874999Y-69800001D03*
X101874999Y-70300000D03*
X105125001Y-70300000D03*
X105125001Y-69800001D03*
X105125001Y-69300002D03*
D18*
X104250001Y-69050000D03*
X103750000Y-69050000D03*
X103250000Y-69050000D03*
X102749999Y-69050000D03*
%TD*%
D19*
%TO.C,H1*%
X54500000Y-40650000D03*
%TD*%
D17*
%TO.C,U1*%
X101874999Y-81825002D03*
X101874999Y-82325001D03*
X101874999Y-82825000D03*
X105125001Y-82825000D03*
X105125001Y-82325001D03*
X105125001Y-81825002D03*
D18*
X104250001Y-81575000D03*
X103750000Y-81575000D03*
X103250000Y-81575000D03*
X102749999Y-81575000D03*
%TD*%
D20*
%TO.C,U5*%
X66060000Y-60000000D03*
X66060000Y-60500000D03*
X66060000Y-61000000D03*
X66060000Y-61500000D03*
X66060000Y-62000000D03*
X66060000Y-62500000D03*
D21*
X66780000Y-63220000D03*
X67280000Y-63220000D03*
X67780000Y-63220000D03*
X68280000Y-63220000D03*
X68780000Y-63220000D03*
X69280000Y-63220000D03*
D20*
X70000000Y-62500000D03*
X70000000Y-62000000D03*
X70000000Y-61500000D03*
X70000000Y-61000000D03*
X70000000Y-60500000D03*
X70000000Y-60000000D03*
D21*
X69280000Y-59280000D03*
X68780000Y-59280000D03*
X68280000Y-59280000D03*
X67780000Y-59280000D03*
X67280000Y-59280000D03*
X66780000Y-59280000D03*
%TD*%
D19*
%TO.C,H2*%
X54500000Y-48600000D03*
%TD*%
D22*
%TO.C,J1*%
X56785000Y-77820000D03*
X62565000Y-77820000D03*
D23*
X55350000Y-77330000D03*
X64000000Y-77330000D03*
D24*
X55350000Y-81500000D03*
X64000000Y-81500000D03*
%TD*%
D19*
%TO.C,H4*%
X54500000Y-64500000D03*
%TD*%
D25*
%TO.C,J2*%
X89500000Y-55500000D03*
D26*
X82300000Y-55500000D03*
D27*
X92650000Y-49500000D03*
X79150000Y-49500000D03*
%TD*%
D19*
%TO.C,H3*%
X54500000Y-56550000D03*
%TD*%
D28*
%TO.C,U4*%
X42658000Y-78067200D03*
X42658000Y-78702200D03*
X42658000Y-79362600D03*
X42658000Y-79997600D03*
X42658000Y-80658000D03*
X42658000Y-81318400D03*
X42658000Y-81953400D03*
X42658000Y-82613800D03*
X42658000Y-83248800D03*
X42658000Y-83909200D03*
X42658000Y-84569600D03*
X42658000Y-85204600D03*
X42658000Y-85865000D03*
X42658000Y-86500000D03*
X48500000Y-86500000D03*
X48500000Y-85865000D03*
X48500000Y-85204600D03*
X48500000Y-84569600D03*
X48500000Y-83909200D03*
X48500000Y-83248800D03*
X48500000Y-82613800D03*
X48500000Y-81953400D03*
X48500000Y-81318400D03*
X48500000Y-80658000D03*
X48500000Y-79997600D03*
X48500000Y-79362600D03*
X48500000Y-78702200D03*
X48500000Y-78067200D03*
%TD*%
D29*
%TO.C,U2*%
X75500000Y-71490000D03*
X75500000Y-72760000D03*
X75500000Y-74030000D03*
X75500000Y-75300000D03*
X75500000Y-76570000D03*
X75500000Y-77840000D03*
X75500000Y-79110000D03*
X75500000Y-80380000D03*
X75500000Y-81650000D03*
X75500000Y-82920000D03*
X75500000Y-84190000D03*
X75500000Y-85460000D03*
X75500000Y-86730000D03*
X75500000Y-88000000D03*
D30*
X77265000Y-89250000D03*
X78535000Y-89250000D03*
X79805000Y-89250000D03*
X81075000Y-89250000D03*
X82345000Y-89250000D03*
X83615000Y-89250000D03*
X84885000Y-89250000D03*
X86155000Y-89250000D03*
X87425000Y-89250000D03*
X88695000Y-89250000D03*
X89965000Y-89250000D03*
X91235000Y-89250000D03*
D29*
X93000000Y-88000000D03*
X93000000Y-86730000D03*
X93000000Y-85460000D03*
X93000000Y-84190000D03*
X93000000Y-82920000D03*
X93000000Y-81650000D03*
X93000000Y-80380000D03*
X93000000Y-79110000D03*
X93000000Y-77840000D03*
X93000000Y-76570000D03*
X93000000Y-75300000D03*
X93000000Y-74030000D03*
X93000000Y-72760000D03*
X93000000Y-71490000D03*
D31*
X81350000Y-77810000D03*
X82750000Y-77810000D03*
X84150000Y-77810000D03*
X81350000Y-79210000D03*
X82750000Y-79210000D03*
X84150000Y-79210000D03*
X81350000Y-80610000D03*
X82750000Y-80610000D03*
X84150000Y-80610000D03*
%TD*%
%LPD*%
M02*
