%TF.GenerationSoftware,KiCad,Pcbnew,9.0.2*%
%TF.CreationDate,2025-11-27T20:34:37+13:00*%
%TF.ProjectId,Rob_Dev_Board,526f625f-4465-4765-9f42-6f6172642e6b,rev?*%
%TF.SameCoordinates,Original*%
%TF.FileFunction,Copper,L4,Bot*%
%TF.FilePolarity,Positive*%
%FSLAX46Y46*%
G04 Gerber Fmt 4.6, Leading zero omitted, Abs format (unit mm)*
G04 Created by KiCad (PCBNEW 9.0.2) date 2025-11-27 20:34:37*
%MOMM*%
%LPD*%
G01*
G04 APERTURE LIST*
%TA.AperFunction,ComponentPad*%
%ADD10R,3.716000X3.716000*%
%TD*%
%TA.AperFunction,ComponentPad*%
%ADD11C,3.716000*%
%TD*%
%TA.AperFunction,ComponentPad*%
%ADD12O,1.200000X2.400000*%
%TD*%
%TA.AperFunction,ComponentPad*%
%ADD13O,2.400000X1.200000*%
%TD*%
%TA.AperFunction,ComponentPad*%
%ADD14O,0.900000X2.000000*%
%TD*%
%TA.AperFunction,ComponentPad*%
%ADD15O,0.900000X1.700000*%
%TD*%
%TA.AperFunction,ComponentPad*%
%ADD16C,0.400000*%
%TD*%
G04 APERTURE END LIST*
D10*
%TO.P,J11,1,+*%
%TO.N,unconnected-(J11-+-Pad1)*%
X182600000Y-85500000D03*
D11*
%TO.P,J11,2,-*%
%TO.N,unconnected-(J11---Pad2)*%
X175400000Y-85500000D03*
D12*
%TO.P,J11,S1*%
%TO.N,N/C*%
X185750000Y-79500000D03*
%TO.P,J11,S2*%
X172250000Y-79500000D03*
%TD*%
D10*
%TO.P,J12,1,+*%
%TO.N,unconnected-(J12-+-Pad1)*%
X165100000Y-85500000D03*
D11*
%TO.P,J12,2,-*%
%TO.N,unconnected-(J12---Pad2)*%
X157900000Y-85500000D03*
D12*
%TO.P,J12,S1*%
%TO.N,N/C*%
X168250000Y-79500000D03*
%TO.P,J12,S2*%
X154750000Y-79500000D03*
%TD*%
D10*
%TO.P,J7,1,+*%
%TO.N,unconnected-(J7-+-Pad1)*%
X178000000Y-141850000D03*
D11*
%TO.P,J7,2,-*%
%TO.N,unconnected-(J7---Pad2)*%
X178000000Y-134650000D03*
D13*
%TO.P,J7,S1*%
%TO.N,N/C*%
X184000000Y-145000000D03*
%TO.P,J7,S2*%
X184000000Y-131500000D03*
%TD*%
D10*
%TO.P,J8,1,+*%
%TO.N,unconnected-(J8-+-Pad1)*%
X127100000Y-85000000D03*
D11*
%TO.P,J8,2,-*%
%TO.N,unconnected-(J8---Pad2)*%
X119900000Y-85000000D03*
D12*
%TO.P,J8,S1*%
%TO.N,N/C*%
X130250000Y-79000000D03*
%TO.P,J8,S2*%
X116750000Y-79000000D03*
%TD*%
D10*
%TO.P,J3,1,+*%
%TO.N,unconnected-(J3-+-Pad1)*%
X108600000Y-85000000D03*
D11*
%TO.P,J3,2,-*%
%TO.N,unconnected-(J3---Pad2)*%
X101400000Y-85000000D03*
D12*
%TO.P,J3,S1*%
%TO.N,N/C*%
X111750000Y-79000000D03*
%TO.P,J3,S2*%
X98250000Y-79000000D03*
%TD*%
D10*
%TO.P,J4,1,+*%
%TO.N,unconnected-(J4-+-Pad1)*%
X106000000Y-95650000D03*
D11*
%TO.P,J4,2,-*%
%TO.N,unconnected-(J4---Pad2)*%
X106000000Y-102850000D03*
D13*
%TO.P,J4,S1*%
%TO.N,N/C*%
X100000000Y-92500000D03*
%TO.P,J4,S2*%
X100000000Y-106000000D03*
%TD*%
D14*
%TO.P,J1,S1,SHIELD*%
%TO.N,Net-(J1-SHIELD-PadS1)*%
X142425000Y-144992500D03*
%TO.P,J1,S2,SHIELD*%
X151075000Y-144992500D03*
D15*
%TO.P,J1,S3,SHIELD*%
X142425000Y-149162500D03*
%TO.P,J1,S4,SHIELD*%
X151075000Y-149162500D03*
%TD*%
D10*
%TO.P,J9,1,+*%
%TO.N,unconnected-(J9-+-Pad1)*%
X178000000Y-123350000D03*
D11*
%TO.P,J9,2,-*%
%TO.N,unconnected-(J9---Pad2)*%
X178000000Y-116150000D03*
D13*
%TO.P,J9,S1*%
%TO.N,N/C*%
X184000000Y-126500000D03*
%TO.P,J9,S2*%
X184000000Y-113000000D03*
%TD*%
D10*
%TO.P,J5,1,+*%
%TO.N,unconnected-(J5-+-Pad1)*%
X106000000Y-114650000D03*
D11*
%TO.P,J5,2,-*%
%TO.N,unconnected-(J5---Pad2)*%
X106000000Y-121850000D03*
D13*
%TO.P,J5,S1*%
%TO.N,N/C*%
X100000000Y-111500000D03*
%TO.P,J5,S2*%
X100000000Y-125000000D03*
%TD*%
D10*
%TO.P,J2,1,+*%
%TO.N,unconnected-(J2-+-Pad1)*%
X146100000Y-85000000D03*
D11*
%TO.P,J2,2,-*%
%TO.N,unconnected-(J2---Pad2)*%
X138900000Y-85000000D03*
D12*
%TO.P,J2,S1*%
%TO.N,N/C*%
X149250000Y-79000000D03*
%TO.P,J2,S2*%
X135750000Y-79000000D03*
%TD*%
D10*
%TO.P,J10,1,+*%
%TO.N,unconnected-(J10-+-Pad1)*%
X178000000Y-103600000D03*
D11*
%TO.P,J10,2,-*%
%TO.N,unconnected-(J10---Pad2)*%
X178000000Y-96400000D03*
D13*
%TO.P,J10,S1*%
%TO.N,N/C*%
X184000000Y-106750000D03*
%TO.P,J10,S2*%
X184000000Y-93250000D03*
%TD*%
D10*
%TO.P,J6,1,+*%
%TO.N,unconnected-(J6-+-Pad1)*%
X106000000Y-133650000D03*
D11*
%TO.P,J6,2,-*%
%TO.N,unconnected-(J6---Pad2)*%
X106000000Y-140850000D03*
D13*
%TO.P,J6,S1*%
%TO.N,N/C*%
X100000000Y-130500000D03*
%TO.P,J6,S2*%
X100000000Y-144000000D03*
%TD*%
D16*
%TO.P,U2,41_10*%
%TO.N,N/C*%
X148565000Y-134940000D03*
%TO.P,U2,41_11*%
X147165000Y-134940000D03*
%TO.P,U2,41_12*%
X149265000Y-134240000D03*
%TO.P,U2,41_13*%
X147865000Y-134240000D03*
%TO.P,U2,41_14*%
X146465000Y-134240000D03*
%TO.P,U2,41_15*%
X148565000Y-133540000D03*
%TO.P,U2,41_16*%
X147165000Y-133540000D03*
%TO.P,U2,41_17*%
X149265000Y-132840000D03*
%TO.P,U2,41_18*%
X147865000Y-132840000D03*
%TO.P,U2,41_19*%
X146465000Y-132840000D03*
%TO.P,U2,41_20*%
X148565000Y-132140000D03*
%TO.P,U2,41_21*%
X147165000Y-132140000D03*
%TD*%
M02*
