%TF.GenerationSoftware,KiCad,Pcbnew,9.0.2*%
%TF.CreationDate,2025-11-05T15:04:59+13:00*%
%TF.ProjectId,Rob_Dev_Board,526f625f-4465-4765-9f42-6f6172642e6b,rev?*%
%TF.SameCoordinates,Original*%
%TF.FileFunction,Copper,L1,Top*%
%TF.FilePolarity,Positive*%
%FSLAX46Y46*%
G04 Gerber Fmt 4.6, Leading zero omitted, Abs format (unit mm)*
G04 Created by KiCad (PCBNEW 9.0.2) date 2025-11-05 15:04:59*
%MOMM*%
%LPD*%
G01*
G04 APERTURE LIST*
%TA.AperFunction,SMDPad,CuDef*%
%ADD10R,0.650001X0.249999*%
%TD*%
%TA.AperFunction,SMDPad,CuDef*%
%ADD11R,4.000000X0.499999*%
%TD*%
%TA.AperFunction,SMDPad,CuDef*%
%ADD12R,1.925000X0.499999*%
%TD*%
%TA.AperFunction,SMDPad,CuDef*%
%ADD13R,4.000000X1.350000*%
%TD*%
%TA.AperFunction,SMDPad,CuDef*%
%ADD14R,0.249999X0.650001*%
%TD*%
%TA.AperFunction,SMDPad,CuDef*%
%ADD15R,1.500000X0.900000*%
%TD*%
%TA.AperFunction,SMDPad,CuDef*%
%ADD16R,0.900000X1.500000*%
%TD*%
%TA.AperFunction,SMDPad,CuDef*%
%ADD17R,0.900000X0.900000*%
%TD*%
G04 APERTURE END LIST*
D10*
%TO.P,U1,1,FAULT_N*%
%TO.N,unconnected-(U1-FAULT_N-Pad1)*%
X101837498Y-78625000D03*
%TO.P,U1,2,IPROPI*%
%TO.N,unconnected-(U1-IPROPI-Pad2)*%
X101837498Y-79124999D03*
%TO.P,U1,3,SLEEP_N*%
%TO.N,unconnected-(U1-SLEEP_N-Pad3)*%
X101837498Y-79624998D03*
D11*
%TO.P,U1,4,VM*%
%TO.N,unconnected-(U1-VM-Pad4)*%
X103462499Y-80299998D03*
D12*
%TO.P,U1,5,OUT2*%
%TO.N,unconnected-(U1-OUT2-Pad5)*%
X102424998Y-81199999D03*
%TO.P,U1,6,OUT2*%
%TO.N,unconnected-(U1-OUT2-Pad6)*%
X102424998Y-82000000D03*
D13*
%TO.P,U1,7,GND*%
%TO.N,unconnected-(U1-GND-Pad7)*%
X103462499Y-83324998D03*
D12*
%TO.P,U1,8,OUT1*%
%TO.N,unconnected-(U1-OUT1-Pad8)*%
X104500000Y-82000000D03*
%TO.P,U1,9,OUT1*%
%TO.N,unconnected-(U1-OUT1-Pad9)*%
X104500000Y-81199999D03*
D10*
%TO.P,U1,10,DRVOFF*%
%TO.N,unconnected-(U1-DRVOFF-Pad10)*%
X105087500Y-79624998D03*
%TO.P,U1,11,EN_IN1*%
%TO.N,unconnected-(U1-EN_IN1-Pad11)*%
X105087500Y-79124999D03*
%TO.P,U1,12,PH_IN2*%
%TO.N,unconnected-(U1-PH_IN2-Pad12)*%
X105087500Y-78625000D03*
D14*
%TO.P,U1,13,DIAG*%
%TO.N,unconnected-(U1-DIAG-Pad13)*%
X104212500Y-78374998D03*
%TO.P,U1,14,SR*%
%TO.N,unconnected-(U1-SR-Pad14)*%
X103712499Y-78374998D03*
%TO.P,U1,15,ITRIP*%
%TO.N,unconnected-(U1-ITRIP-Pad15)*%
X103212499Y-78374998D03*
%TO.P,U1,16,MODE*%
%TO.N,unconnected-(U1-MODE-Pad16)*%
X102712498Y-78374998D03*
%TD*%
D15*
%TO.P,IC2,1,GND_1*%
%TO.N,unconnected-(IC2-GND_1-Pad1)*%
X73000000Y-73990000D03*
%TO.P,IC2,2,3V3*%
%TO.N,unconnected-(IC2-3V3-Pad2)*%
X73000000Y-75260000D03*
%TO.P,IC2,3,EN*%
%TO.N,unconnected-(IC2-EN-Pad3)*%
X73000000Y-76530000D03*
%TO.P,IC2,4,IO4*%
%TO.N,unconnected-(IC2-IO4-Pad4)*%
X73000000Y-77800000D03*
%TO.P,IC2,5,IO5*%
%TO.N,unconnected-(IC2-IO5-Pad5)*%
X73000000Y-79070000D03*
%TO.P,IC2,6,IO6*%
%TO.N,unconnected-(IC2-IO6-Pad6)*%
X73000000Y-80340000D03*
%TO.P,IC2,7,IO7*%
%TO.N,unconnected-(IC2-IO7-Pad7)*%
X73000000Y-81610000D03*
%TO.P,IC2,8,IO15*%
%TO.N,unconnected-(IC2-IO15-Pad8)*%
X73000000Y-82880000D03*
%TO.P,IC2,9,IO16*%
%TO.N,unconnected-(IC2-IO16-Pad9)*%
X73000000Y-84150000D03*
%TO.P,IC2,10,IO17*%
%TO.N,unconnected-(IC2-IO17-Pad10)*%
X73000000Y-85420000D03*
%TO.P,IC2,11,IO18*%
%TO.N,unconnected-(IC2-IO18-Pad11)*%
X73000000Y-86690000D03*
%TO.P,IC2,12,IO8*%
%TO.N,unconnected-(IC2-IO8-Pad12)*%
X73000000Y-87960000D03*
%TO.P,IC2,13,IO19*%
%TO.N,unconnected-(IC2-IO19-Pad13)*%
X73000000Y-89230000D03*
%TO.P,IC2,14,IO20*%
%TO.N,unconnected-(IC2-IO20-Pad14)*%
X73000000Y-90500000D03*
D16*
%TO.P,IC2,15,IO3*%
%TO.N,unconnected-(IC2-IO3-Pad15)*%
X74765000Y-91750000D03*
%TO.P,IC2,16,IO46*%
%TO.N,unconnected-(IC2-IO46-Pad16)*%
X76035000Y-91750000D03*
%TO.P,IC2,17,IO9*%
%TO.N,unconnected-(IC2-IO9-Pad17)*%
X77305000Y-91750000D03*
%TO.P,IC2,18,IO10*%
%TO.N,unconnected-(IC2-IO10-Pad18)*%
X78575000Y-91750000D03*
%TO.P,IC2,19,IO11*%
%TO.N,unconnected-(IC2-IO11-Pad19)*%
X79845000Y-91750000D03*
%TO.P,IC2,20,IO12*%
%TO.N,unconnected-(IC2-IO12-Pad20)*%
X81115000Y-91750000D03*
%TO.P,IC2,21,IO13*%
%TO.N,unconnected-(IC2-IO13-Pad21)*%
X82385000Y-91750000D03*
%TO.P,IC2,22,IO14*%
%TO.N,unconnected-(IC2-IO14-Pad22)*%
X83655000Y-91750000D03*
%TO.P,IC2,23,IO21*%
%TO.N,unconnected-(IC2-IO21-Pad23)*%
X84925000Y-91750000D03*
%TO.P,IC2,24,IO47*%
%TO.N,unconnected-(IC2-IO47-Pad24)*%
X86195000Y-91750000D03*
%TO.P,IC2,25,IO48*%
%TO.N,unconnected-(IC2-IO48-Pad25)*%
X87465000Y-91750000D03*
%TO.P,IC2,26,IO45*%
%TO.N,unconnected-(IC2-IO45-Pad26)*%
X88735000Y-91750000D03*
D15*
%TO.P,IC2,27,IO0*%
%TO.N,unconnected-(IC2-IO0-Pad27)*%
X90500000Y-90500000D03*
%TO.P,IC2,28,IO35*%
%TO.N,unconnected-(IC2-IO35-Pad28)*%
X90500000Y-89230000D03*
%TO.P,IC2,29,IO36*%
%TO.N,unconnected-(IC2-IO36-Pad29)*%
X90500000Y-87960000D03*
%TO.P,IC2,30,IO37*%
%TO.N,unconnected-(IC2-IO37-Pad30)*%
X90500000Y-86690000D03*
%TO.P,IC2,31,IO38*%
%TO.N,unconnected-(IC2-IO38-Pad31)*%
X90500000Y-85420000D03*
%TO.P,IC2,32,IO39*%
%TO.N,unconnected-(IC2-IO39-Pad32)*%
X90500000Y-84150000D03*
%TO.P,IC2,33,IO40*%
%TO.N,unconnected-(IC2-IO40-Pad33)*%
X90500000Y-82880000D03*
%TO.P,IC2,34,IO41*%
%TO.N,unconnected-(IC2-IO41-Pad34)*%
X90500000Y-81610000D03*
%TO.P,IC2,35,IO42*%
%TO.N,unconnected-(IC2-IO42-Pad35)*%
X90500000Y-80340000D03*
%TO.P,IC2,36,RXD0*%
%TO.N,unconnected-(IC2-RXD0-Pad36)*%
X90500000Y-79070000D03*
%TO.P,IC2,37,TXD0*%
%TO.N,unconnected-(IC2-TXD0-Pad37)*%
X90500000Y-77800000D03*
%TO.P,IC2,38,IO2*%
%TO.N,unconnected-(IC2-IO2-Pad38)*%
X90500000Y-76530000D03*
%TO.P,IC2,39,IO1*%
%TO.N,unconnected-(IC2-IO1-Pad39)*%
X90500000Y-75260000D03*
%TO.P,IC2,40,GND_2*%
%TO.N,unconnected-(IC2-GND_2-Pad40)*%
X90500000Y-73990000D03*
D17*
%TO.P,IC2,41,GND_3*%
%TO.N,unconnected-(IC2-GND_3-Pad41)*%
X80250000Y-81710000D03*
%TO.P,IC2,42,GND_4*%
%TO.N,unconnected-(IC2-GND_4-Pad42)*%
X78850000Y-80310000D03*
%TO.P,IC2,43,GND_5*%
%TO.N,unconnected-(IC2-GND_5-Pad43)*%
X78850000Y-81710000D03*
%TO.P,IC2,44,GND_6*%
%TO.N,unconnected-(IC2-GND_6-Pad44)*%
X78850000Y-83110000D03*
%TO.P,IC2,45,GND_7*%
%TO.N,unconnected-(IC2-GND_7-Pad45)*%
X80250000Y-83110000D03*
%TO.P,IC2,46,GND_8*%
%TO.N,unconnected-(IC2-GND_8-Pad46)*%
X81650000Y-83110000D03*
%TO.P,IC2,47,GND_9*%
%TO.N,unconnected-(IC2-GND_9-Pad47)*%
X81650000Y-81710000D03*
%TO.P,IC2,48,GND_10*%
%TO.N,unconnected-(IC2-GND_10-Pad48)*%
X81650000Y-80310000D03*
%TO.P,IC2,49,GND_11*%
%TO.N,unconnected-(IC2-GND_11-Pad49)*%
X80250000Y-80310000D03*
%TD*%
M02*
